<?xml version="1.0" standalone="no"?>
<!DOCTYPE svg PUBLIC "-//W3C//DTD SVG 20010904//EN"
 "http://www.w3.org/TR/2001/REC-SVG-20010904/DTD/svg10.dtd">
<svg version="1.0" xmlns="http://www.w3.org/2000/svg"
 width="1024.000000pt" height="1210.000000pt" viewBox="0 0 1024.000000 1210.000000"
 preserveAspectRatio="xMidYMid meet">

<g transform="translate(0.000000,1210.000000) scale(0.100000,-0.100000)"
fill="#000000" stroke="none">
<path d="M103 11950 c-12 -33 -18 -60 -13 -60 5 0 12 9 15 20 9 28 51 27 58
-2 4 -12 9 -19 12 -16 10 9 -27 118 -39 118 -6 0 -21 -27 -33 -60z m46 -2 c1
-5 -6 -8 -14 -8 -16 0 -19 9 -8 36 6 16 7 16 14 -2 4 -10 8 -22 8 -26z"/>
<path d="M190 11920 c0 -33 4 -60 10 -60 6 0 10 8 10 18 0 13 7 18 21 18 31
-1 46 26 31 58 -9 20 -19 26 -42 26 l-30 0 0 -60z m55 14 c0 -19 -5 -29 -15
-29 -16 0 -25 28 -16 51 10 25 31 10 31 -22z"/>
<path d="M280 11920 c0 -33 4 -60 10 -60 6 0 10 8 10 18 0 13 7 18 21 18 31
-1 46 26 31 58 -9 20 -19 26 -42 26 l-30 0 0 -60z m55 14 c0 -19 -5 -29 -15
-29 -16 0 -25 28 -16 51 10 25 31 10 31 -22z"/>
<path d="M370 11934 c0 -24 5 -44 10 -44 6 0 10 15 10 33 0 18 4 37 10 43 6 6
3 10 -10 11 -17 2 -20 -4 -20 -43z"/>
<path d="M429 11959 c-8 -16 -8 -28 0 -45 18 -41 71 -25 71 21 0 44 -50 61
-71 24z m46 -25 c0 -19 -5 -29 -15 -29 -16 0 -25 28 -16 51 10 25 31 10 31
-22z"/>
<path d="M510 11974 c0 -20 24 -84 32 -84 8 0 18 20 33 70 11 36 -8 15 -21
-23 l-11 -32 -7 32 c-7 29 -26 56 -26 37z"/>
<path d="M598 11954 c-9 -18 -9 -30 -1 -42 13 -21 55 -22 61 -2 4 13 3 13 -11
2 -9 -8 -21 -11 -27 -7 -20 12 -10 25 20 25 33 0 35 3 20 31 -15 27 -48 24
-62 -7z m50 -2 c2 -7 -6 -12 -17 -12 -21 0 -27 11 -14 24 9 9 26 2 31 -12z"/>
<path d="M90 11761 c0 -34 4 -61 10 -61 6 0 10 12 10 26 0 22 4 25 28 22 19
-2 28 -9 30 -25 2 -13 7 -23 12 -23 5 0 7 7 4 15 -4 8 -7 34 -8 57 l-1 43 -42
3 -43 3 0 -60z m75 24 c0 -14 -8 -21 -27 -23 -24 -3 -28 0 -28 23 0 23 4 26
28 23 19 -2 27 -9 27 -23z"/>
<path d="M498 11798 c-8 -24 8 -92 22 -96 12 -4 13 -2 3 9 -15 15 -17 66 -4
71 5 2 3 8 -4 15 -10 9 -15 9 -17 1z"/>
<path d="M208 11764 c-9 -18 -9 -30 -1 -42 13 -21 55 -22 61 -2 4 13 3 13 -11
2 -9 -8 -21 -11 -27 -7 -20 12 -10 25 20 25 33 0 35 3 20 31 -15 27 -48 24
-62 -7z m50 -2 c2 -7 -6 -12 -17 -12 -21 0 -27 11 -14 24 9 9 26 2 31 -12z"/>
<path d="M288 11730 c-2 -37 1 -59 7 -57 13 5 19 117 6 117 -5 0 -11 -27 -13
-60z"/>
<path d="M330 11764 c-19 -48 28 -87 60 -49 14 17 0 21 -17 4 -6 -6 -16 -8
-22 -5 -21 13 -11 26 19 26 31 0 39 17 18 38 -20 20 -48 14 -58 -14z m48 -2
c2 -7 -6 -12 -17 -12 -21 0 -27 11 -14 24 9 9 26 2 31 -12z"/>
<path d="M420 11769 c-17 -31 2 -72 32 -67 12 2 24 10 26 18 5 13 3 13 -11 2
-21 -18 -37 -7 -37 23 0 30 16 41 37 23 14 -11 16 -11 11 2 -8 24 -45 24 -58
-1z"/>
<path d="M90 11625 c0 -24 35 -115 44 -112 11 4 48 108 41 115 -2 3 -9 -8 -15
-24 -26 -72 -26 -72 -40 -29 -12 38 -30 68 -30 50z"/>
<path d="M480 11570 l0 -61 37 3 c30 2 41 9 51 31 21 43 -2 81 -51 85 l-37 3
0 -61z m68 38 c7 -7 12 -24 12 -38 0 -30 -17 -50 -42 -50 -15 0 -18 9 -18 50
0 41 3 50 18 50 10 0 23 -5 30 -12z"/>
<path d="M850 11570 c0 -33 4 -60 10 -60 6 0 10 27 10 60 0 33 -4 60 -10 60
-6 0 -10 -27 -10 -60z"/>
<path d="M688 11610 c-2 -6 -2 -31 0 -55 3 -34 8 -45 21 -44 10 0 11 2 4 6
-15 5 -18 70 -4 75 5 2 3 8 -4 15 -8 8 -15 8 -17 3z"/>
<path d="M203 11555 c0 -27 2 -38 4 -22 2 15 2 37 0 50 -2 12 -4 0 -4 -28z"/>
<path d="M242 11588 c-20 -20 -15 -66 8 -73 20 -6 56 12 45 23 -2 3 -11 -1
-19 -7 -8 -7 -20 -10 -26 -6 -20 12 -10 25 20 25 18 0 30 5 30 13 0 16 -20 37
-35 37 -6 0 -16 -5 -23 -12z m29 -26 c-28 -4 -40 6 -21 18 9 6 20 4 29 -3 12
-10 11 -13 -8 -15z"/>
<path d="M315 11583 c3 -10 9 -30 12 -45 7 -37 20 -35 31 5 l9 32 7 -32 c4
-18 12 -33 16 -33 11 0 34 79 26 87 -6 6 -12 -7 -19 -42 -3 -15 -6 -13 -12 13
-4 17 -11 32 -16 32 -5 0 -13 -15 -18 -32 l-9 -33 -7 33 c-4 17 -12 32 -17 32
-6 0 -7 -8 -3 -17z"/>
<path d="M598 11574 c-9 -18 -9 -30 -1 -42 13 -21 55 -22 61 -2 4 13 3 13 -11
2 -9 -8 -21 -11 -27 -7 -20 12 -10 25 20 25 33 0 35 3 20 31 -15 27 -48 24
-62 -7z m50 -2 c2 -7 -6 -12 -17 -12 -21 0 -27 11 -14 24 9 9 26 2 31 -12z"/>
<path d="M737 11594 c-14 -14 -7 -26 8 -14 12 10 19 10 27 2 8 -8 6 -13 -8
-18 -52 -19 -53 -54 0 -52 31 1 32 2 26 42 -4 31 -10 42 -25 44 -12 2 -24 0
-28 -4z m41 -56 c-7 -19 -38 -22 -38 -4 0 10 9 16 21 16 12 0 19 -5 17 -12z"/>
<path d="M823 11555 c0 -27 2 -38 4 -22 2 15 2 37 0 50 -2 12 -4 0 -4 -28z"/>
<path d="M897 11593 c-15 -14 -6 -34 20 -44 20 -7 23 -13 15 -21 -9 -9 -15 -9
-24 0 -18 18 -33 15 -18 -3 17 -20 54 -15 58 7 2 12 -6 21 -23 28 -15 6 -23
15 -20 21 4 6 13 8 21 5 8 -3 14 -1 14 4 0 11 -33 14 -43 3z"/>
<path d="M90 11381 c0 -34 4 -61 10 -61 6 0 10 12 10 26 0 22 4 25 28 22 19
-2 28 -9 30 -25 2 -13 7 -23 12 -23 5 0 7 7 4 15 -4 8 -7 34 -8 57 l-1 43 -42
3 -43 3 0 -60z m75 24 c0 -14 -8 -21 -27 -23 -24 -3 -28 0 -28 23 0 23 4 26
28 23 19 -2 27 -9 27 -23z"/>
<path d="M638 11419 c-7 -20 6 -92 17 -96 8 -2 11 41 6 100 -1 11 -19 8 -23
-4z"/>
<path d="M208 11384 c-9 -18 -9 -30 -1 -42 13 -21 55 -22 61 -2 4 13 3 13 -11
2 -9 -8 -21 -11 -27 -7 -20 12 -10 25 20 25 33 0 35 3 20 31 -15 27 -48 24
-62 -7z m50 -2 c2 -7 -6 -12 -17 -12 -21 0 -27 11 -14 24 9 9 26 2 31 -12z"/>
<path d="M302 11398 c-20 -20 -15 -66 8 -73 11 -3 24 -4 29 0 5 3 12 -5 14
-17 2 -13 5 4 6 37 1 57 -1 61 -22 63 -13 1 -29 -4 -35 -10z m42 -46 c-13 -20
-25 -20 -38 1 -7 10 -5 21 4 32 12 15 15 15 29 0 12 -12 13 -19 5 -33z"/>
<path d="M382 11368 c3 -41 5 -43 36 -44 32 -1 32 -1 31 45 -2 34 -3 38 -6 16
-10 -63 -43 -74 -43 -15 0 22 -5 40 -11 40 -6 0 -9 -17 -7 -42z"/>
<path d="M482 11398 c-20 -20 -15 -66 8 -73 20 -6 56 12 45 23 -2 3 -11 -1
-19 -7 -8 -7 -20 -10 -26 -6 -20 12 -10 25 20 25 18 0 30 5 30 13 0 16 -20 37
-35 37 -6 0 -16 -5 -23 -12z m29 -26 c-28 -4 -40 6 -21 18 9 6 20 4 29 -3 12
-10 11 -13 -8 -15z"/>
<path d="M567 11404 c-15 -15 -6 -35 20 -45 19 -7 23 -13 15 -21 -8 -8 -16 -7
-28 3 -15 12 -17 12 -12 -1 7 -21 52 -19 56 2 2 12 -6 21 -24 28 -20 8 -24 14
-16 22 8 8 16 7 28 -3 15 -12 17 -12 12 1 -5 16 -39 25 -51 14z"/>
<path d="M737 11404 c-14 -14 -7 -26 8 -14 12 10 19 10 27 2 8 -8 6 -13 -8
-18 -52 -19 -53 -54 0 -52 31 1 32 2 26 42 -4 31 -10 42 -25 44 -12 2 -24 0
-28 -4z m41 -56 c-7 -19 -38 -22 -38 -4 0 10 9 16 21 16 12 0 19 -5 17 -12z"/>
<path d="M860 11364 c0 -24 5 -44 10 -44 6 0 10 15 10 33 0 18 4 37 10 43 6 6
3 10 -10 11 -17 2 -20 -4 -20 -43z"/>
<path d="M918 11384 c-9 -18 -9 -30 -1 -42 13 -21 55 -22 61 -2 4 13 3 13 -11
2 -9 -8 -21 -11 -27 -7 -20 12 -10 25 20 25 33 0 35 3 20 31 -15 27 -48 24
-62 -7z m50 -2 c2 -7 -6 -12 -17 -12 -21 0 -27 11 -14 24 9 9 26 2 31 -12z"/>
<path d="M1000 11404 c0 -20 24 -84 32 -84 8 0 18 20 33 70 11 36 -8 15 -21
-23 l-11 -32 -7 32 c-7 29 -26 56 -26 37z"/>
<path d="M1093 11365 c0 -27 2 -38 4 -22 2 15 2 37 0 50 -2 12 -4 0 -4 -28z"/>
<path d="M1132 11398 c-20 -20 -15 -66 8 -73 20 -6 56 12 45 23 -2 3 -11 -1
-19 -7 -8 -7 -20 -10 -26 -6 -20 12 -10 25 20 25 18 0 30 5 30 13 0 16 -20 37
-35 37 -6 0 -16 -5 -23 -12z m29 -26 c-28 -4 -40 6 -21 18 9 6 20 4 29 -3 12
-10 11 -13 -8 -15z"/>
<path d="M1203 11394 c4 -11 9 -31 13 -46 8 -37 21 -35 30 5 l7 32 9 -32 c11
-40 24 -42 32 -5 4 15 9 35 12 45 3 9 1 17 -5 17 -6 0 -11 -11 -11 -25 0 -31
-17 -33 -22 -2 -4 27 -22 26 -26 -3 -4 -26 -22 -26 -22 -1 0 11 -5 23 -11 27
-7 4 -9 0 -6 -12z"/>
<path d="M90 11190 l0 -60 43 2 c36 1 38 2 10 5 -33 4 -33 5 -33 59 0 30 -4
54 -10 54 -6 0 -10 -27 -10 -60z"/>
<path d="M180 11194 c-19 -48 28 -87 60 -49 14 17 0 21 -17 4 -6 -6 -16 -8
-22 -5 -21 13 -11 26 19 26 31 0 39 17 18 38 -20 20 -48 14 -58 -14z m48 -2
c2 -7 -6 -12 -17 -12 -21 0 -27 11 -14 24 9 9 26 2 31 -12z"/>
<path d="M277 11214 c-14 -14 -7 -26 8 -14 12 10 19 10 27 2 8 -8 6 -13 -8
-18 -52 -19 -53 -54 0 -52 31 1 32 2 26 42 -4 31 -10 42 -25 44 -12 2 -24 0
-28 -4z m41 -56 c-7 -19 -38 -22 -38 -4 0 10 9 16 21 16 12 0 19 -5 17 -12z"/>
<path d="M362 11170 c1 -40 2 -41 5 -10 2 19 11 40 20 47 13 10 13 12 -6 10
-18 -1 -21 -7 -19 -47z"/>
<path d="M411 11170 l1 -45 8 38 c4 20 10 40 13 43 13 13 27 -9 27 -42 0 -19
5 -34 10 -34 12 0 13 60 2 78 -5 6 -20 11 -35 10 -25 -2 -27 -5 -26 -48z"/>
<path d="M540 11175 c0 -54 17 -60 22 -8 4 52 28 56 28 4 0 -50 18 -55 22 -6
4 47 21 45 29 -2 l6 -38 2 46 1 47 -55 1 -55 0 0 -44z"/>
<path d="M682 11208 c-7 -7 -12 -21 -12 -33 0 -46 53 -62 71 -21 21 45 -26 87
-59 54z m46 -27 c5 -34 -16 -51 -33 -27 -10 14 -11 24 -4 38 13 24 33 18 37
-11z"/>
<path d="M772 11170 c1 -40 2 -41 5 -10 2 19 11 40 20 47 13 10 13 12 -6 10
-18 -1 -21 -7 -19 -47z"/>
<path d="M820 11194 c-19 -48 28 -87 60 -49 14 17 0 21 -17 4 -6 -6 -16 -8
-22 -5 -21 13 -11 26 19 26 31 0 39 17 18 38 -20 20 -48 14 -58 -14z m48 -2
c2 -7 -6 -12 -17 -12 -21 0 -27 11 -14 24 9 9 26 2 31 -12z"/>
<path d="M152 10986 c-31 -30 -53 -58 -49 -62 4 -4 17 2 30 13 16 15 31 19 59
16 29 -4 39 -1 44 11 3 9 12 16 19 16 6 0 20 9 29 19 17 19 17 20 -3 30 -42
23 -71 13 -129 -43z m113 24 c-3 -5 -15 -10 -26 -10 -10 0 -19 -7 -19 -15 0
-10 -10 -15 -27 -15 l-26 0 23 25 c23 24 89 37 75 15z"/>
<path d="M200 10920 c0 -5 16 -10 35 -10 19 0 35 5 35 10 0 6 -16 10 -35 10
-19 0 -35 -4 -35 -10z"/>
<path d="M180 10880 c0 -18 7 -20 55 -20 48 0 55 2 55 20 0 18 -7 20 -55 20
-48 0 -55 -2 -55 -20z"/>
<path d="M101 10746 c-19 -22 -7 -43 28 -51 17 -4 31 -13 31 -21 0 -23 -29
-28 -50 -9 -21 19 -28 7 -8 -13 25 -25 78 -8 78 26 0 7 -16 20 -35 28 -38 15
-45 31 -19 41 11 4 22 -1 31 -13 14 -19 15 -19 11 1 -4 25 -50 32 -67 11z"/>
<path d="M1140 10740 c0 -13 -5 -18 -15 -14 -21 8 -45 -14 -45 -41 0 -28 19
-45 48 -42 20 1 22 7 22 59 0 32 -2 58 -5 58 -3 0 -5 -9 -5 -20z m-5 -56 c0
-32 -21 -39 -38 -12 -8 12 -7 21 3 32 19 24 35 14 35 -20z"/>
<path d="M498 10738 c-8 -24 8 -92 22 -96 12 -4 13 -2 3 9 -15 15 -17 66 -4
71 5 2 3 8 -4 15 -10 9 -15 9 -17 1z"/>
<path d="M203 10685 c0 -27 2 -38 4 -22 2 15 2 37 0 50 -2 12 -4 0 -4 -28z"/>
<path d="M234 10716 c-3 -8 -4 -27 -2 -43 2 -22 8 -28 26 -27 13 0 22 -5 22
-14 0 -10 -7 -12 -26 -8 -17 5 -23 3 -19 -4 10 -17 44 -11 55 9 5 11 10 38 10
60 0 39 -2 41 -30 41 -17 0 -33 -6 -36 -14z m41 -32 c0 -19 -5 -29 -15 -29
-16 0 -25 28 -16 51 10 25 31 10 31 -22z"/>
<path d="M321 10681 c1 -42 2 -43 8 -15 16 65 41 74 41 14 0 -22 5 -40 11 -40
6 0 9 17 7 43 -3 40 -5 42 -35 43 -33 1 -33 1 -32 -45z"/>
<path d="M417 10723 c-14 -13 -7 -25 8 -13 8 6 19 9 25 5 17 -11 11 -23 -12
-27 -15 -2 -23 -10 -23 -23 0 -16 7 -20 36 -21 34 -1 35 0 31 30 -3 17 -9 37
-14 44 -11 13 -40 16 -51 5z m43 -52 c0 -14 -18 -23 -30 -16 -6 4 -8 11 -5 16
8 12 35 12 35 0z"/>
<path d="M542 10688 c3 -41 5 -43 36 -44 32 -1 32 -1 31 45 -2 34 -3 38 -6 16
-10 -63 -43 -74 -43 -15 0 22 -5 40 -11 40 -6 0 -9 -17 -7 -42z"/>
<path d="M631 10680 c1 -43 1 -44 9 -13 4 18 13 39 19 47 10 12 9 15 -8 13
-18 -1 -21 -8 -20 -47z"/>
<path d="M688 10704 c-9 -18 -9 -30 -1 -42 13 -21 55 -22 61 -2 4 13 3 13 -11
2 -9 -8 -21 -11 -27 -7 -20 12 -10 25 20 25 33 0 35 3 20 31 -15 27 -48 24
-62 -7z m50 -2 c2 -7 -6 -12 -17 -12 -21 0 -27 11 -14 24 9 9 26 2 31 -12z"/>
<path d="M821 10665 c1 -33 4 -50 6 -38 3 14 9 20 19 16 20 -7 44 15 44 42 0
28 -19 45 -48 42 -20 -1 -22 -6 -21 -62z m53 32 c8 -12 7 -21 -6 -33 -20 -20
-38 -11 -38 20 0 39 23 46 44 13z"/>
<path d="M910 10704 c-19 -48 28 -87 60 -49 14 17 0 21 -17 4 -6 -6 -16 -8
-22 -5 -21 13 -11 26 19 26 31 0 39 17 18 38 -20 20 -48 14 -58 -14z m48 -2
c2 -7 -6 -12 -17 -12 -21 0 -27 11 -14 24 9 9 26 2 31 -12z"/>
<path d="M1001 10681 l2 -46 6 40 c4 26 11 40 21 40 10 0 17 -14 21 -40 l7
-40 -2 45 c-1 42 -3 45 -28 46 -27 1 -28 -1 -27 -45z"/>
<path d="M1170 10685 c0 -25 5 -45 10 -45 6 0 10 20 10 45 0 25 -4 45 -10 45
-5 0 -10 -20 -10 -45z"/>
<path d="M1211 10680 l1 -45 8 38 c4 20 10 40 13 43 13 13 27 -9 27 -42 0 -19
5 -34 10 -34 12 0 13 60 2 78 -5 6 -20 11 -35 10 -25 -2 -27 -5 -26 -48z"/>
<path d="M1299 10709 c-16 -31 4 -73 32 -66 13 3 19 1 16 -6 -2 -7 -15 -11
-28 -9 -17 2 -21 0 -12 -9 6 -6 19 -9 29 -7 15 3 20 14 22 58 3 53 2 56 -22
58 -17 1 -29 -5 -37 -19z m46 -25 c0 -19 -5 -29 -15 -29 -16 0 -25 28 -16 51
10 25 31 10 31 -22z"/>
<path d="M101 10556 c-19 -22 -7 -43 28 -51 17 -4 31 -13 31 -21 0 -23 -29
-28 -50 -9 -21 19 -28 7 -8 -13 25 -25 78 -8 78 26 0 7 -16 20 -35 28 -38 15
-45 31 -19 41 11 4 22 -1 31 -13 14 -19 15 -19 11 1 -4 25 -50 32 -67 11z"/>
<path d="M203 10495 c0 -27 2 -38 4 -22 2 15 2 37 0 50 -2 12 -4 0 -4 -28z"/>
<path d="M234 10526 c-3 -8 -4 -27 -2 -43 2 -22 8 -28 26 -27 13 0 22 -5 22
-14 0 -10 -7 -12 -26 -8 -17 5 -23 3 -19 -4 10 -17 44 -11 55 9 5 11 10 38 10
60 0 39 -2 41 -30 41 -17 0 -33 -6 -36 -14z m41 -32 c0 -19 -5 -29 -15 -29
-16 0 -25 28 -16 51 10 25 31 10 31 -22z"/>
<path d="M321 10491 c1 -42 2 -43 8 -15 16 65 41 74 41 14 0 -22 5 -40 11 -40
6 0 9 17 7 43 -3 40 -5 42 -35 43 -33 1 -33 1 -32 -45z"/>
<path d="M90 10321 c0 -34 4 -61 10 -61 6 0 10 12 10 26 0 22 4 25 28 22 19
-2 28 -9 30 -25 2 -13 7 -23 12 -23 5 0 7 7 4 15 -4 8 -7 34 -8 57 l-1 43 -42
3 -43 3 0 -60z m75 24 c0 -14 -8 -21 -27 -23 -24 -3 -28 0 -28 23 0 23 4 26
28 23 19 -2 27 -9 27 -23z"/>
<path d="M498 10358 c-8 -24 8 -92 22 -96 12 -4 13 -2 3 9 -15 15 -17 66 -4
71 5 2 3 8 -4 15 -10 9 -15 9 -17 1z"/>
<path d="M208 10324 c-9 -18 -9 -30 -1 -42 13 -21 55 -22 61 -2 4 13 3 13 -11
2 -9 -8 -21 -11 -27 -7 -20 12 -10 25 20 25 33 0 35 3 20 31 -15 27 -48 24
-62 -7z m50 -2 c2 -7 -6 -12 -17 -12 -21 0 -27 11 -14 24 9 9 26 2 31 -12z"/>
<path d="M288 10290 c-2 -37 1 -59 7 -57 13 5 19 117 6 117 -5 0 -11 -27 -13
-60z"/>
<path d="M330 10324 c-19 -48 28 -87 60 -49 14 17 0 21 -17 4 -6 -6 -16 -8
-22 -5 -21 13 -11 26 19 26 31 0 39 17 18 38 -20 20 -48 14 -58 -14z m48 -2
c2 -7 -6 -12 -17 -12 -21 0 -27 11 -14 24 9 9 26 2 31 -12z"/>
<path d="M420 10329 c-17 -31 2 -72 32 -67 12 2 24 10 26 18 5 13 3 13 -11 2
-21 -18 -37 -7 -37 23 0 30 16 41 37 23 14 -11 16 -11 11 2 -8 24 -45 24 -58
-1z"/>
<path d="M90 10185 c0 -24 35 -115 44 -112 11 4 48 108 41 115 -2 3 -9 -8 -15
-24 -26 -72 -26 -72 -40 -29 -12 38 -30 68 -30 50z"/>
<path d="M540 10171 c0 -14 -6 -17 -25 -13 -19 3 -27 -1 -34 -19 -14 -38 1
-64 38 -65 l31 -1 0 59 c0 32 -2 58 -5 58 -3 0 -5 -8 -5 -19z m-11 -40 c7 -13
6 -23 -3 -36 -16 -22 -36 -12 -36 19 0 39 22 49 39 17z"/>
<path d="M833 10130 c0 -36 2 -50 4 -32 2 17 2 47 0 65 -2 17 -4 3 -4 -33z"/>
<path d="M658 10168 c-8 -24 8 -92 22 -96 12 -4 13 -2 3 9 -15 15 -17 66 -4
71 5 2 3 8 -4 15 -10 9 -15 9 -17 1z"/>
<path d="M203 10115 c0 -27 2 -38 4 -22 2 15 2 37 0 50 -2 12 -4 0 -4 -28z"/>
<path d="M242 10148 c-20 -20 -15 -66 8 -73 20 -6 56 12 45 23 -2 3 -11 -1
-19 -7 -8 -7 -20 -10 -26 -6 -20 12 -10 25 20 25 18 0 30 5 30 13 0 16 -20 37
-35 37 -6 0 -16 -5 -23 -12z m29 -26 c-28 -4 -40 6 -21 18 9 6 20 4 29 -3 12
-10 11 -13 -8 -15z"/>
<path d="M315 10143 c3 -10 9 -30 12 -45 7 -37 20 -35 31 5 l9 32 7 -32 c4
-18 12 -33 16 -33 11 0 34 79 26 87 -6 6 -12 -7 -19 -42 -3 -15 -6 -13 -12 13
-4 17 -11 32 -16 32 -5 0 -13 -15 -18 -32 l-9 -33 -7 33 c-4 17 -12 32 -17 32
-6 0 -7 -8 -3 -17z"/>
<path d="M570 10134 c-19 -48 28 -87 60 -49 14 17 0 21 -17 4 -6 -6 -16 -8
-22 -5 -21 13 -11 26 19 26 31 0 39 17 18 38 -20 20 -48 14 -58 -14z m48 -2
c2 -7 -6 -12 -17 -12 -21 0 -27 11 -14 24 9 9 26 2 31 -12z"/>
<path d="M717 10154 c-4 -4 -7 -12 -7 -18 0 -6 5 -5 12 2 16 16 28 15 28 -2 0
-8 -10 -16 -22 -18 -15 -2 -23 -10 -23 -23 0 -16 7 -20 35 -21 l36 -1 -6 41
c-4 31 -10 42 -25 44 -12 2 -24 0 -28 -4z m33 -53 c0 -14 -18 -23 -30 -16 -6
4 -8 11 -5 16 8 12 35 12 35 0z"/>
<path d="M793 10115 c0 -27 2 -38 4 -22 2 15 2 37 0 50 -2 12 -4 0 -4 -28z"/>
<path d="M867 10154 c-15 -15 -6 -35 20 -45 19 -7 23 -13 15 -21 -8 -8 -16 -7
-28 3 -15 12 -17 12 -12 -1 6 -20 35 -25 53 -10 18 15 11 28 -23 41 -19 7 -22
13 -14 21 8 8 16 7 28 -3 15 -12 17 -12 12 1 -5 16 -39 25 -51 14z"/>
<path d="M90 9941 c0 -34 4 -61 10 -61 6 0 10 12 10 26 0 22 4 25 28 22 19 -2
28 -9 30 -25 2 -13 7 -23 12 -23 5 0 7 7 4 15 -4 8 -7 34 -8 57 l-1 43 -42 3
-43 3 0 -60z m75 24 c0 -14 -8 -21 -27 -23 -24 -3 -28 0 -28 23 0 23 4 26 28
23 19 -2 27 -9 27 -23z"/>
<path d="M663 9940 c0 -36 2 -50 4 -32 2 17 2 47 0 65 -2 17 -4 3 -4 -33z"/>
<path d="M781 9944 l-1 -61 31 1 c37 1 52 27 38 65 -7 18 -15 22 -34 19 -18
-4 -25 0 -28 16 -2 12 -5 -6 -6 -40z m57 -13 c5 -34 -16 -51 -33 -27 -10 14
-11 24 -4 38 13 24 33 18 37 -11z"/>
<path d="M963 9940 c0 -36 2 -50 4 -32 2 17 2 47 0 65 -2 17 -4 3 -4 -33z"/>
<path d="M208 9944 c-9 -18 -9 -30 -1 -42 13 -21 55 -22 61 -2 4 13 3 13 -11
2 -9 -8 -21 -11 -27 -7 -20 12 -10 25 20 25 33 0 35 3 20 31 -15 27 -48 24
-62 -7z m50 -2 c2 -7 -6 -12 -17 -12 -21 0 -27 11 -14 24 9 9 26 2 31 -12z"/>
<path d="M291 9966 c-2 -17 22 -86 30 -86 4 0 14 20 22 45 9 25 12 45 8 45 -5
0 -13 -15 -18 -32 l-10 -33 -16 35 c-8 19 -16 31 -16 26z"/>
<path d="M370 9925 c0 -25 5 -45 10 -45 6 0 10 20 10 45 0 25 -4 45 -10 45 -5
0 -10 -20 -10 -45z"/>
<path d="M410 9944 c-19 -48 28 -87 60 -49 14 17 0 21 -17 4 -6 -6 -16 -8 -22
-5 -21 13 -11 26 19 26 31 0 39 17 18 38 -20 20 -48 14 -58 -14z m48 -2 c2 -7
-6 -12 -17 -12 -21 0 -27 11 -14 24 9 9 26 2 31 -12z"/>
<path d="M493 9954 c4 -11 9 -31 13 -46 8 -37 21 -35 30 5 l7 32 9 -32 c11
-40 24 -42 32 -5 4 15 9 35 12 45 3 9 1 17 -5 17 -6 0 -11 -11 -11 -25 0 -31
-17 -33 -22 -2 -4 27 -22 26 -26 -3 -4 -26 -22 -26 -22 -1 0 11 -5 23 -11 27
-7 4 -9 0 -6 -12z"/>
<path d="M707 9964 c-4 -4 -7 -12 -7 -18 0 -6 5 -5 12 2 16 16 28 15 28 -2 0
-8 -10 -16 -22 -18 -15 -2 -23 -10 -23 -23 0 -16 7 -20 35 -21 l36 -1 -6 41
c-4 31 -10 42 -25 44 -12 2 -24 0 -28 -4z m33 -53 c0 -14 -18 -23 -30 -16 -6
4 -8 11 -5 16 8 12 35 12 35 0z"/>
<path d="M882 9958 c-20 -20 -15 -66 8 -73 20 -6 56 12 45 23 -2 3 -11 -1 -19
-7 -8 -7 -20 -10 -26 -6 -20 12 -10 25 20 25 18 0 30 5 30 13 0 16 -20 37 -35
37 -6 0 -16 -5 -23 -12z m29 -26 c-28 -4 -40 6 -21 18 9 6 20 4 29 -3 12 -10
11 -13 -8 -15z"/>
<path d="M90 9750 c0 -68 17 -82 22 -17 l3 42 24 -42 c14 -24 28 -43 33 -43 4
0 7 28 6 63 l-1 62 -6 -50 -6 -50 -28 48 c-15 26 -32 47 -37 47 -6 0 -10 -27
-10 -60z"/>
<path d="M391 9792 c-12 -23 -3 -37 32 -48 31 -10 36 -24 13 -39 -10 -6 -21
-4 -35 9 -22 20 -30 9 -9 -12 25 -25 78 -8 78 26 0 7 -16 20 -35 28 -19 8 -35
19 -35 24 0 16 30 24 43 11 17 -17 31 -13 17 4 -17 21 -57 19 -69 -3z"/>
<path d="M292 9784 c-7 -8 -8 -14 -2 -14 5 0 10 -18 10 -40 0 -22 3 -40 8 -40
7 0 8 98 0 105 -1 2 -9 -3 -16 -11z"/>
<path d="M212 9768 c-7 -7 -12 -21 -12 -33 0 -46 53 -62 71 -21 21 45 -26 87
-59 54z m46 -27 c5 -34 -16 -51 -33 -27 -10 14 -11 24 -4 38 13 24 33 18 37
-11z"/>
<path d="M491 9715 c1 -33 4 -50 6 -38 3 14 9 20 19 16 20 -7 44 15 44 42 0
28 -19 45 -48 42 -20 -1 -22 -6 -21 -62z m53 32 c8 -12 7 -21 -6 -33 -20 -20
-38 -11 -38 20 0 39 23 46 44 13z"/>
<path d="M587 9774 c-14 -14 -7 -26 8 -14 12 10 19 10 27 2 8 -8 6 -13 -8 -18
-52 -19 -53 -54 0 -52 31 1 32 2 26 42 -4 31 -10 42 -25 44 -12 2 -24 0 -28
-4z m41 -56 c-7 -19 -38 -22 -38 -4 0 10 9 16 21 16 12 0 19 -5 17 -12z"/>
<path d="M671 9731 l2 -46 6 40 c4 26 11 40 21 40 10 0 17 -14 21 -40 l6 -40
2 37 c1 35 15 57 28 44 3 -3 10 -23 14 -43 l7 -38 -1 45 -2 45 -52 1 -53 1 1
-46z"/>
<path d="M90 9561 c0 -34 4 -61 10 -61 6 0 10 12 10 26 0 22 4 25 28 22 19 -2
28 -9 30 -25 2 -13 7 -23 12 -23 5 0 7 7 4 15 -4 8 -7 34 -8 57 l-1 43 -42 3
-43 3 0 -60z m75 24 c0 -14 -8 -21 -27 -23 -24 -3 -28 0 -28 23 0 23 4 26 28
23 19 -2 27 -9 27 -23z"/>
<path d="M732 9603 c-4 -10 -5 -38 -1 -63 6 -42 6 -43 7 -9 1 19 7 40 14 47 9
9 9 12 -1 12 -11 0 -11 3 -1 15 8 10 9 15 2 15 -6 0 -15 -8 -20 -17z"/>
<path d="M208 9564 c-9 -18 -9 -30 -1 -42 13 -21 55 -22 61 -2 4 13 3 13 -11
2 -9 -8 -21 -11 -27 -7 -20 12 -10 25 20 25 33 0 35 3 20 31 -15 27 -48 24
-62 -7z m50 -2 c2 -7 -6 -12 -17 -12 -21 0 -27 11 -14 24 9 9 26 2 31 -12z"/>
<path d="M290 9545 c0 -54 17 -60 22 -8 4 52 28 56 28 4 0 -50 18 -55 22 -6 4
47 21 45 29 -2 l6 -38 2 46 1 47 -55 1 -55 0 0 -44z"/>
<path d="M429 9569 c-8 -16 -8 -28 0 -45 18 -41 71 -25 71 21 0 44 -50 61 -71
24z m46 -25 c0 -19 -5 -29 -15 -29 -16 0 -25 28 -16 51 10 25 31 10 31 -22z"/>
<path d="M510 9584 c0 -20 24 -84 32 -84 8 0 18 20 33 70 11 36 -8 15 -21 -23
l-11 -32 -7 32 c-7 29 -26 56 -26 37z"/>
<path d="M598 9564 c-9 -18 -9 -30 -1 -42 13 -21 55 -22 61 -2 4 13 3 13 -11
2 -9 -8 -21 -11 -27 -7 -20 12 -10 25 20 25 33 0 35 3 20 31 -15 27 -48 24
-62 -7z m50 -2 c2 -7 -6 -12 -17 -12 -21 0 -27 11 -14 24 9 9 26 2 31 -12z"/>
<path d="M782 9578 c-30 -30 -2 -86 38 -73 15 5 20 15 20 40 0 41 -32 59 -58
33z m43 -34 c0 -32 -21 -39 -38 -12 -8 12 -7 21 3 32 19 24 35 14 35 -20z"/>
<path d="M860 9544 c0 -24 5 -44 10 -44 6 0 10 15 10 33 0 18 4 37 10 43 6 6
3 10 -10 11 -17 2 -20 -4 -20 -43z"/>
<path d="M918 9564 c-9 -18 -9 -30 -1 -42 13 -21 55 -22 61 -2 4 13 3 13 -11
2 -9 -8 -21 -11 -27 -7 -20 12 -10 25 20 25 33 0 35 3 20 31 -15 27 -48 24
-62 -7z m50 -2 c2 -7 -6 -12 -17 -12 -21 0 -27 11 -14 24 9 9 26 2 31 -12z"/>
<path d="M1000 9584 c0 -20 24 -84 32 -84 8 0 18 20 33 70 11 36 -8 15 -21
-23 l-11 -32 -7 32 c-7 29 -26 56 -26 37z"/>
<path d="M1088 9564 c-9 -18 -9 -30 -1 -42 13 -21 55 -22 61 -2 4 13 3 13 -11
2 -9 -8 -21 -11 -27 -7 -20 12 -10 25 20 25 33 0 35 3 20 31 -15 27 -48 24
-62 -7z m50 -2 c2 -7 -6 -12 -17 -12 -21 0 -27 11 -14 24 9 9 26 2 31 -12z"/>
<path d="M1170 9544 c0 -24 5 -44 10 -44 6 0 10 15 10 33 0 18 4 37 10 43 6 6
3 10 -10 11 -17 2 -20 -4 -20 -43z"/>
<path d="M90 9370 c0 -68 17 -82 22 -17 l3 42 24 -42 c14 -24 28 -43 33 -43 4
0 7 28 6 63 l-1 62 -6 -50 -6 -50 -28 48 c-15 26 -32 47 -37 47 -6 0 -10 -27
-10 -60z"/>
<path d="M391 9412 c-12 -23 -3 -37 32 -48 31 -10 36 -24 13 -39 -10 -6 -21
-4 -35 9 -22 20 -30 9 -9 -12 25 -25 78 -8 78 26 0 7 -16 20 -35 28 -19 8 -35
19 -35 24 0 16 30 24 43 11 17 -17 31 -13 17 4 -17 21 -57 19 -69 -3z"/>
<path d="M292 9404 c-7 -8 -8 -14 -2 -14 5 0 10 -18 10 -40 0 -22 3 -40 8 -40
7 0 8 98 0 105 -1 2 -9 -3 -16 -11z"/>
<path d="M212 9388 c-7 -7 -12 -21 -12 -33 0 -46 53 -62 71 -21 21 45 -26 87
-59 54z m46 -27 c5 -34 -16 -51 -33 -27 -10 14 -11 24 -4 38 13 24 33 18 37
-11z"/>
<path d="M491 9335 c1 -33 4 -50 6 -38 3 14 9 20 19 16 20 -7 44 15 44 42 0
28 -19 45 -48 42 -20 -1 -22 -6 -21 -62z m53 32 c8 -12 7 -21 -6 -33 -20 -20
-38 -11 -38 20 0 39 23 46 44 13z"/>
<path d="M587 9394 c-14 -14 -7 -26 8 -14 12 10 19 10 27 2 8 -8 6 -13 -8 -18
-52 -19 -53 -54 0 -52 31 1 32 2 26 42 -4 31 -10 42 -25 44 -12 2 -24 0 -28
-4z m41 -56 c-7 -19 -38 -22 -38 -4 0 10 9 16 21 16 12 0 19 -5 17 -12z"/>
<path d="M671 9351 l2 -46 6 40 c4 26 11 40 21 40 10 0 17 -14 21 -40 l6 -40
2 37 c1 35 15 57 28 44 3 -3 10 -23 14 -43 l7 -38 -1 45 -2 45 -52 1 -53 1 1
-46z"/>
<path d="M90 4570 l0 -61 37 3 c49 4 72 42 51 86 -10 21 -21 28 -51 30 l-37 3
0 -61z m68 38 c7 -7 12 -24 12 -38 0 -30 -17 -50 -42 -50 -15 0 -18 9 -18 50
0 41 3 50 18 50 10 0 23 -5 30 -12z"/>
<path d="M460 4570 c0 -33 4 -60 10 -60 6 0 10 27 10 60 0 33 -4 60 -10 60 -6
0 -10 -27 -10 -60z"/>
<path d="M292 4604 c-7 -8 -8 -14 -2 -14 5 0 10 -18 10 -40 0 -22 3 -40 8 -40
7 0 8 98 0 105 -1 2 -9 -3 -16 -11z"/>
<path d="M208 4574 c-9 -18 -9 -30 -1 -42 13 -21 55 -22 61 -2 4 13 3 13 -11
2 -9 -8 -21 -11 -27 -7 -20 12 -10 25 20 25 33 0 35 3 20 31 -15 27 -48 24
-62 -7z m50 -2 c2 -7 -6 -12 -17 -12 -21 0 -27 11 -14 24 9 9 26 2 31 -12z"/>
<path d="M347 4594 c-14 -14 -7 -26 8 -14 12 10 19 10 27 2 8 -8 6 -13 -8 -18
-52 -19 -53 -54 0 -52 31 1 32 2 26 42 -4 31 -10 42 -25 44 -12 2 -24 0 -28
-4z m41 -56 c-7 -19 -38 -22 -38 -4 0 10 9 16 21 16 12 0 19 -5 17 -12z"/>
<path d="M433 4555 c0 -27 2 -38 4 -22 2 15 2 37 0 50 -2 12 -4 0 -4 -28z"/>
<path d="M507 4593 c-15 -14 -6 -34 20 -44 20 -7 23 -13 15 -21 -9 -9 -15 -9
-24 0 -18 18 -33 15 -18 -3 17 -20 54 -15 58 7 2 12 -6 21 -23 28 -15 6 -23
15 -20 21 4 6 13 8 21 5 8 -3 14 -1 14 4 0 11 -33 14 -43 3z"/>
<path d="M106 4424 c-31 -30 -11 -104 27 -104 36 1 57 14 57 36 0 20 -5 24
-27 23 -24 -2 -25 -2 -5 -6 27 -5 28 -19 3 -33 -46 -24 -81 35 -43 72 20 20
22 20 46 4 27 -17 35 -9 14 12 -17 17 -54 15 -72 -4z"/>
<path d="M620 4380 c0 -33 4 -60 10 -60 6 0 10 27 10 60 0 33 -4 60 -10 60 -6
0 -10 -27 -10 -60z"/>
<path d="M713 4380 c0 -36 2 -50 4 -32 2 17 2 47 0 65 -2 17 -4 3 -4 -33z"/>
<path d="M842 4423 c-4 -10 -5 -38 -1 -63 l6 -45 1 42 c1 23 8 44 15 46 9 4 8
6 -2 6 -11 1 -11 4 -1 16 8 10 9 15 2 15 -6 0 -15 -8 -20 -17z"/>
<path d="M222 4398 c-16 -16 -15 -53 3 -68 18 -15 47 -10 53 10 5 13 3 13 -12
1 -15 -12 -19 -12 -34 2 -15 16 -14 17 17 17 28 0 32 3 29 23 -3 25 -36 35
-56 15z m46 -16 c2 -7 -7 -12 -23 -12 -24 0 -26 2 -15 15 14 17 31 16 38 -3z"/>
<path d="M300 4366 c0 -55 17 -62 22 -8 4 52 31 50 39 -3 l7 -40 -2 45 c-1 43
-2 45 -33 48 -33 3 -33 3 -33 -42z"/>
<path d="M402 4398 c-20 -20 -15 -66 8 -73 20 -6 56 12 45 23 -2 3 -11 -1 -19
-7 -8 -7 -20 -10 -26 -6 -20 12 -10 25 20 25 18 0 30 5 30 13 0 16 -20 37 -35
37 -6 0 -16 -5 -23 -12z m29 -26 c-28 -4 -40 6 -21 18 9 6 20 4 29 -3 12 -10
11 -13 -8 -15z"/>
<path d="M481 4360 c1 -43 1 -44 9 -13 4 18 13 39 19 47 10 12 9 15 -8 13 -18
-1 -21 -8 -20 -47z"/>
<path d="M547 4404 c-4 -4 -7 -12 -7 -18 0 -6 5 -5 12 2 16 16 28 15 28 -2 0
-8 -10 -16 -22 -18 -15 -2 -23 -10 -23 -23 0 -16 7 -20 35 -21 l36 -1 -6 41
c-4 31 -10 42 -25 44 -12 2 -24 0 -28 -4z m33 -53 c0 -14 -18 -23 -30 -16 -6
4 -8 11 -5 16 8 12 35 12 35 0z"/>
<path d="M751 4361 l2 -46 6 40 c4 26 11 40 21 40 10 0 17 -14 21 -40 l7 -40
-2 45 c-1 42 -3 45 -28 46 -27 1 -28 -1 -27 -45z"/>
<path d="M893 4403 c-7 -2 -13 -20 -13 -38 0 -25 5 -35 20 -40 26 -8 50 11 50
39 0 36 -25 53 -57 39z m41 -26 c8 -12 7 -21 -6 -33 -20 -20 -38 -11 -38 20 0
39 23 46 44 13z"/>
<path d="M98 4243 c20 -4 22 -10 22 -59 0 -30 5 -54 10 -54 6 0 10 24 10 54 0
44 4 55 18 59 9 3 -5 5 -33 4 -27 0 -40 -2 -27 -4z"/>
<path d="M196 4173 c11 -37 11 -49 1 -61 -10 -12 -9 -14 2 -11 14 5 53 98 47
114 -2 6 -10 -6 -18 -25 l-15 -35 -7 33 c-4 17 -11 32 -16 32 -4 0 -2 -21 6
-47z"/>
<path d="M271 4155 c1 -33 4 -50 6 -38 3 14 9 20 19 16 20 -7 44 15 44 42 0
28 -19 45 -48 42 -20 -1 -22 -6 -21 -62z m53 32 c8 -12 7 -21 -6 -33 -20 -20
-38 -11 -38 20 0 39 23 46 44 13z"/>
<path d="M358 4194 c-9 -18 -9 -30 -1 -42 13 -21 55 -22 61 -2 4 13 3 13 -11
2 -9 -8 -21 -11 -27 -7 -20 12 -10 25 20 25 33 0 35 3 20 31 -15 27 -48 24
-62 -7z m50 -2 c2 -7 -6 -12 -17 -12 -21 0 -27 11 -14 24 9 9 26 2 31 -12z"/>
<path d="M103 4000 c0 -36 2 -50 4 -32 2 17 2 47 0 65 -2 17 -4 3 -4 -33z"/>
<path d="M130 3985 c0 -54 17 -60 22 -8 4 52 28 56 28 4 0 -50 18 -55 22 -6 4
47 21 45 29 -2 l6 -38 2 46 1 47 -55 1 -55 0 0 -44z"/>
<path d="M277 4024 c-14 -14 -7 -26 8 -14 12 10 19 10 27 2 8 -8 6 -13 -8 -18
-52 -19 -53 -54 0 -52 31 1 32 2 26 42 -4 31 -10 42 -25 44 -12 2 -24 0 -28
-4z m41 -56 c-7 -19 -38 -22 -38 -4 0 10 9 16 21 16 12 0 19 -5 17 -12z"/>
<path d="M362 4018 c-28 -28 -1 -88 34 -74 10 4 14 2 11 -6 -2 -7 -14 -13 -26
-12 -11 0 -21 -3 -21 -8 0 -5 12 -8 28 -6 25 3 27 6 30 58 3 52 1 56 -21 58
-13 1 -29 -4 -35 -10z m48 -32 c0 -6 -5 -18 -10 -26 -9 -13 -12 -13 -25 4 -19
25 -2 64 21 45 8 -6 14 -17 14 -23z"/>
<path d="M448 4004 c-9 -18 -9 -30 -1 -42 13 -21 55 -22 61 -2 4 13 3 13 -11
2 -9 -8 -21 -11 -27 -7 -20 12 -10 25 20 25 33 0 35 3 20 31 -15 27 -48 24
-62 -7z m50 -2 c2 -7 -6 -12 -17 -12 -21 0 -27 11 -14 24 9 9 26 2 31 -12z"/>
<path d="M90 3810 l0 -61 37 3 c49 4 72 42 51 86 -10 21 -21 28 -51 30 l-37 3
0 -61z m68 38 c7 -7 12 -24 12 -38 0 -30 -17 -50 -42 -50 -15 0 -18 9 -18 50
0 41 3 50 18 50 10 0 23 -5 30 -12z"/>
<path d="M213 3795 c0 -27 2 -38 4 -22 2 15 2 37 0 50 -2 12 -4 0 -4 -28z"/>
<path d="M241 3791 c2 -34 3 -38 6 -16 10 64 42 69 44 7 1 -20 3 -28 6 -17 2
11 6 30 9 43 7 35 28 21 35 -24 l7 -39 -2 45 -1 45 -52 1 -53 1 1 -46z"/>
<path d="M382 3828 c-16 -16 -15 -53 3 -68 18 -15 47 -10 53 10 5 13 3 13 -12
1 -15 -12 -19 -12 -34 2 -15 16 -14 17 17 17 28 0 32 3 29 23 -3 25 -36 35
-56 15z m46 -16 c2 -7 -7 -12 -23 -12 -24 0 -26 2 -15 15 14 17 31 16 38 -3z"/>
<path d="M460 3796 c0 -55 17 -62 22 -8 4 52 31 50 39 -3 l7 -40 -2 45 c-1 43
-2 45 -33 48 -33 3 -33 3 -33 -42z"/>
<path d="M557 3834 c-15 -15 -6 -35 20 -45 19 -7 23 -13 15 -21 -8 -8 -16 -7
-28 3 -15 12 -17 12 -12 -1 7 -21 52 -19 56 2 2 12 -6 21 -24 28 -20 8 -24 14
-16 22 8 8 16 7 28 -3 15 -12 17 -12 12 1 -5 16 -39 25 -51 14z"/>
<path d="M633 3795 c0 -27 2 -38 4 -22 2 15 2 37 0 50 -2 12 -4 0 -4 -28z"/>
<path d="M672 3828 c-7 -7 -12 -21 -12 -33 0 -46 53 -62 71 -21 21 45 -26 87
-59 54z m46 -27 c5 -34 -16 -51 -33 -27 -10 14 -11 24 -4 38 13 24 33 18 37
-11z"/>
<path d="M761 3791 l2 -46 6 40 c4 26 11 40 21 40 10 0 17 -14 21 -40 l7 -40
-2 45 c-1 42 -3 45 -28 46 -27 1 -28 -1 -27 -45z"/>
<path d="M850 3825 c-12 -14 -11 -18 1 -26 8 -5 20 -9 27 -9 6 0 12 -7 12 -15
0 -18 -27 -20 -33 -2 -2 6 -8 9 -12 5 -11 -10 4 -28 24 -28 18 0 41 18 41 32
0 5 -11 13 -25 18 -14 5 -25 14 -25 20 0 14 13 13 29 -2 11 -11 13 -10 9 2 -7
21 -32 24 -48 5z"/>
<path d="M191 3671 c-16 -10 -19 -87 -3 -103 32 -32 74 28 56 79 -10 30 -30
39 -53 24z m34 -52 c0 -32 -4 -44 -15 -44 -16 0 -26 54 -16 82 12 30 31 6 31
-38z"/>
<path d="M270 3650 c0 -25 4 -29 22 -27 15 1 23 -4 26 -17 6 -28 -14 -42 -34
-25 -15 12 -17 12 -12 -1 7 -21 48 -19 62 3 14 22 -3 51 -33 55 -28 4 -22 24
10 33 21 6 21 7 -8 8 -30 1 -33 -2 -33 -29z"/>
<path d="M530 3665 c-7 -8 -10 -18 -6 -22 3 -4 13 2 20 13 12 16 17 17 28 6
11 -11 10 -16 -5 -26 -15 -12 -16 -14 -2 -20 17 -6 20 -32 4 -41 -5 -4 -19 1
-30 11 -10 9 -19 13 -19 8 0 -16 23 -34 42 -34 18 0 42 33 31 44 -3 3 -6 20
-7 38 -1 25 -6 34 -22 36 -11 2 -27 -4 -34 -13z"/>
<path d="M622 3668 c-19 -19 -14 -33 6 -15 10 10 22 17 25 17 13 0 7 -40 -5
-40 -7 0 -5 -5 5 -11 22 -13 22 -38 1 -46 -11 -4 -22 1 -31 13 -14 19 -15 19
-11 -1 2 -15 11 -20 33 -20 29 0 30 2 32 50 2 60 -24 84 -55 53z"/>
<path d="M727 3673 l33 -4 -21 -40 c-11 -22 -19 -47 -17 -55 2 -8 15 12 30 45
l26 61 -41 -2 c-37 -1 -38 -2 -10 -5z"/>
<path d="M105 3633 l-25 -38 25 -3 c14 -2 25 -10 25 -18 0 -20 18 -18 22 3 5
28 -3 93 -13 93 -4 0 -20 -17 -34 -37z m25 -13 c0 -11 -7 -20 -15 -20 -13 0
-14 4 -5 20 6 11 13 20 15 20 3 0 5 -9 5 -20z"/>
<path d="M400 3645 c0 -6 6 -17 12 -23 10 -10 10 -17 0 -33 -8 -12 -11 -23 -8
-26 3 -3 8 2 12 11 6 16 8 16 25 0 21 -19 27 -6 7 14 -10 10 -10 17 0 33 16
25 10 36 -8 14 -11 -14 -14 -13 -26 2 -7 10 -14 13 -14 8z"/>
<path d="M101 3476 c-19 -22 -7 -43 28 -51 17 -4 31 -13 31 -21 0 -23 -29 -28
-50 -9 -21 19 -28 7 -8 -13 25 -25 78 -8 78 26 0 7 -16 20 -35 28 -38 15 -45
31 -19 41 11 4 22 -1 31 -13 14 -19 15 -19 11 1 -4 25 -50 32 -67 11z"/>
<path d="M203 3415 c0 -27 2 -38 4 -22 2 15 2 37 0 50 -2 12 -4 0 -4 -28z"/>
<path d="M248 3452 l23 -7 -26 -34 c-14 -19 -25 -36 -25 -38 0 -2 17 -2 38 -2
23 1 28 3 15 6 -28 5 -28 11 -3 43 27 34 25 40 -12 39 -28 -1 -29 -2 -10 -7z"/>
<path d="M322 3448 c-20 -20 -15 -66 8 -73 20 -6 56 12 45 23 -2 3 -11 -1 -19
-7 -8 -7 -20 -10 -26 -6 -20 12 -10 25 20 25 18 0 30 5 30 13 0 16 -20 37 -35
37 -6 0 -16 -5 -23 -12z m29 -26 c-28 -4 -40 6 -21 18 9 6 20 4 29 -3 12 -10
11 -13 -8 -15z"/>
<path d="M103 3293 c-7 -2 -13 -12 -13 -20 0 -14 2 -14 19 1 16 14 20 15 30 2
10 -12 7 -20 -18 -42 -42 -38 -40 -54 7 -53 30 2 32 3 10 6 -35 5 -35 18 -3
39 49 32 21 89 -32 67z"/>
<path d="M180 3270 c0 -25 4 -29 22 -27 15 1 23 -4 26 -17 6 -28 -14 -42 -34
-25 -15 12 -17 12 -12 -1 7 -21 48 -19 62 3 14 22 -3 51 -33 55 -28 4 -22 24
10 33 21 6 21 7 -8 8 -30 1 -33 -2 -33 -29z"/>
<path d="M310 3240 c0 -33 4 -60 10 -60 6 0 10 11 10 24 0 37 17 40 36 6 10
-16 22 -30 26 -30 13 0 10 9 -14 40 l-22 30 24 25 c32 34 13 32 -22 -2 l-28
-27 0 27 c0 15 -4 27 -10 27 -6 0 -10 -27 -10 -60z"/>
<path d="M420 3241 l0 -61 34 0 c39 0 62 21 51 47 -4 10 -8 29 -9 43 -1 21 -6
25 -38 28 l-38 3 0 -60z m59 40 c7 -5 10 -14 7 -20 -10 -16 -56 -14 -56 2 0
26 23 35 49 18z m6 -66 c0 -22 -31 -33 -47 -17 -17 17 -1 44 24 40 15 -2 23
-10 23 -23z"/>
<path d="M90 3051 c0 -65 19 -87 21 -23 l1 37 12 -34 c18 -50 31 -48 47 6 l14
48 6 -50 6 -50 1 63 c1 34 -2 62 -7 62 -5 0 -17 -24 -27 -52 l-17 -53 -17 49
c-24 72 -40 71 -40 -3z"/>
<path d="M370 3091 c0 -14 -6 -17 -25 -13 -19 3 -27 -1 -34 -19 -14 -38 1 -64
38 -65 l31 -1 0 59 c0 32 -2 58 -5 58 -3 0 -5 -8 -5 -19z m-11 -40 c7 -13 6
-23 -3 -36 -16 -22 -36 -12 -36 19 0 39 22 49 39 17z"/>
<path d="M442 3093 c-4 -10 -5 -38 -1 -63 l6 -45 1 42 c1 23 8 44 15 46 9 4 8
6 -2 6 -11 1 -11 4 -1 16 8 10 9 15 2 15 -6 0 -15 -8 -20 -17z"/>
<path d="M660 3090 c0 -13 -5 -18 -15 -14 -21 8 -45 -14 -45 -41 0 -28 19 -45
48 -42 20 1 22 7 22 59 0 32 -2 58 -5 58 -3 0 -5 -9 -5 -20z m-5 -56 c0 -32
-21 -39 -38 -12 -8 12 -7 21 3 32 19 24 35 14 35 -20z"/>
<path d="M232 3068 c-30 -30 -2 -86 38 -73 15 5 20 15 20 40 0 41 -32 59 -58
33z m43 -34 c0 -32 -21 -39 -38 -12 -8 12 -7 21 3 32 19 24 35 14 35 -20z"/>
<path d="M403 3035 c0 -27 2 -38 4 -22 2 15 2 37 0 50 -2 12 -4 0 -4 -28z"/>
<path d="M483 3035 c0 -27 2 -38 4 -22 2 15 2 37 0 50 -2 12 -4 0 -4 -28z"/>
<path d="M518 3054 c-9 -18 -9 -30 -1 -42 13 -21 55 -22 61 -2 4 13 3 13 -11
2 -9 -8 -21 -11 -27 -7 -20 12 -10 25 20 25 33 0 35 3 20 31 -15 27 -48 24
-62 -7z m50 -2 c2 -7 -6 -12 -17 -12 -21 0 -27 11 -14 24 9 9 26 2 31 -12z"/>
<path d="M316 2904 c-12 -30 -7 -46 13 -39 10 3 24 -1 31 -10 11 -13 11 -19
-3 -32 -14 -14 -18 -14 -33 -2 -15 12 -17 12 -12 -1 6 -20 48 -19 61 1 13 21
2 50 -23 56 -29 8 -24 31 8 36 26 4 26 4 -4 6 -21 0 -34 -5 -38 -15z"/>
<path d="M412 2911 c-24 -15 -10 -55 21 -61 26 -5 27 -6 13 -25 -13 -17 -17
-18 -25 -5 -11 16 -27 7 -16 -9 10 -18 43 -12 55 8 30 57 -4 121 -48 92z m35
-12 c14 -14 6 -39 -12 -39 -18 0 -28 17 -21 35 6 18 18 19 33 4z"/>
<path d="M520 2860 c0 -33 4 -60 10 -60 6 0 10 11 10 24 0 19 6 25 26 28 63 7
51 68 -12 68 l-34 0 0 -60z m65 25 c0 -13 -8 -21 -22 -23 -19 -3 -23 1 -23 23
0 22 4 26 23 23 14 -2 22 -10 22 -23z"/>
<path d="M632 2858 l1 -63 6 50 6 50 14 -40 c19 -56 29 -63 41 -29 21 58 24
59 30 14 7 -44 7 -43 8 18 2 77 -14 80 -38 6 l-17 -49 -17 53 c-10 28 -22 52
-27 52 -5 0 -8 -28 -7 -62z"/>
<path d="M811 2858 c1 -45 3 -55 8 -33 5 23 13 31 36 36 l30 7 -33 1 c-47 1
-41 34 8 42 l35 6 -42 2 -43 1 1 -62z"/>
<path d="M991 2864 l-1 -61 31 1 c37 1 52 27 38 65 -7 18 -15 22 -34 19 -18
-4 -25 0 -28 16 -2 12 -5 -6 -6 -40z m57 -13 c5 -34 -16 -51 -33 -27 -10 14
-11 24 -4 38 13 24 33 18 37 -11z"/>
<path d="M1146 2899 c-17 -16 -17 -19 -3 -19 11 0 17 -12 20 -42 3 -34 4 -30
5 20 1 34 1 62 0 61 -2 0 -12 -9 -22 -20z"/>
<path d="M1220 2906 c0 -8 -3 -22 -6 -31 -5 -13 -1 -16 22 -13 24 2 30 -1 32
-20 4 -24 -29 -45 -36 -24 -4 14 -22 16 -22 3 0 -14 34 -23 54 -15 27 10 18
68 -11 72 -32 5 -29 30 5 35 25 4 25 4 -5 6 -23 1 -33 -4 -33 -13z"/>
<path d="M110 2895 c-9 -10 -9 -15 -1 -15 6 0 11 -17 11 -40 0 -22 5 -40 10
-40 6 0 10 25 10 55 0 56 -8 67 -30 40z"/>
<path d="M200 2895 c-8 -9 -9 -15 -2 -15 6 0 13 -19 15 -42 3 -37 4 -35 5 15
1 31 0 57 -2 57 -2 0 -9 -7 -16 -15z"/>
<path d="M912 2878 c-16 -16 -15 -53 3 -68 18 -15 47 -10 53 10 5 13 3 13 -12
1 -15 -12 -19 -12 -34 2 -15 16 -14 17 17 17 28 0 32 3 29 23 -3 25 -36 35
-56 15z m46 -16 c2 -7 -7 -12 -23 -12 -24 0 -26 2 -15 15 14 17 31 16 38 -3z"/>
<path d="M106 2714 c-9 -8 -16 -28 -16 -44 0 -52 50 -78 85 -44 22 22 10 32
-13 11 -10 -10 -21 -17 -25 -17 -13 0 -37 32 -37 50 0 19 25 50 40 50 5 0 16
-7 24 -16 14 -13 16 -13 16 -1 0 28 -50 36 -74 11z"/>
<path d="M620 2711 c0 -14 -5 -18 -18 -14 -28 7 -47 -23 -36 -55 7 -21 16 -27
42 -29 l32 -1 0 59 c0 33 -4 59 -10 59 -5 0 -10 -9 -10 -19z m-5 -57 c0 -19
-5 -29 -15 -29 -16 0 -25 28 -16 51 10 25 31 10 31 -22z"/>
<path d="M438 2710 c-2 -6 -2 -31 0 -55 3 -34 8 -45 21 -44 10 0 11 2 4 6 -15
5 -18 70 -4 75 5 2 3 8 -4 15 -8 8 -15 8 -17 3z"/>
<path d="M212 2650 c1 -40 2 -41 5 -10 2 19 11 40 20 47 13 10 13 12 -6 10
-18 -1 -21 -7 -19 -47z"/>
<path d="M260 2674 c-19 -48 28 -87 60 -49 14 17 0 21 -17 4 -6 -6 -16 -8 -22
-5 -21 13 -11 26 19 26 31 0 39 17 18 38 -20 20 -48 14 -58 -14z m48 -2 c2 -7
-6 -12 -17 -12 -21 0 -27 11 -14 24 9 9 26 2 31 -12z"/>
<path d="M357 2694 c-14 -14 -7 -26 8 -14 12 10 19 10 27 2 8 -8 6 -13 -8 -18
-52 -19 -53 -54 0 -52 31 1 32 2 26 42 -4 31 -10 42 -25 44 -12 2 -24 0 -28
-4z m41 -56 c-7 -19 -38 -22 -38 -4 0 10 9 16 21 16 12 0 19 -5 17 -12z"/>
<path d="M492 2688 c-20 -20 -15 -66 8 -73 20 -6 56 12 45 23 -2 3 -11 -1 -19
-7 -8 -7 -20 -10 -26 -6 -20 12 -10 25 20 25 18 0 30 5 30 13 0 16 -20 37 -35
37 -6 0 -16 -5 -23 -12z m29 -26 c-28 -4 -40 6 -21 18 9 6 20 4 29 -3 12 -10
11 -13 -8 -15z"/>
<path d="M316 2524 c-12 -30 -7 -46 13 -39 10 3 24 -1 31 -10 11 -13 11 -19
-3 -32 -14 -14 -18 -14 -33 -2 -15 12 -17 12 -12 -1 6 -20 48 -19 61 1 13 21
2 50 -23 56 -29 8 -24 31 8 36 26 4 26 4 -4 6 -21 0 -34 -5 -38 -15z"/>
<path d="M412 2531 c-24 -15 -10 -55 21 -61 26 -5 27 -6 13 -25 -13 -17 -17
-18 -25 -5 -11 16 -27 7 -16 -9 10 -18 43 -12 55 8 30 57 -4 121 -48 92z m35
-12 c14 -14 6 -39 -12 -39 -18 0 -28 17 -21 35 6 18 18 19 33 4z"/>
<path d="M520 2480 c0 -33 4 -60 10 -60 6 0 10 11 10 24 0 19 6 25 26 28 63 7
51 68 -12 68 l-34 0 0 -60z m65 25 c0 -13 -8 -21 -22 -23 -19 -3 -23 1 -23 23
0 22 4 26 23 23 14 -2 22 -10 22 -23z"/>
<path d="M632 2478 l1 -63 6 50 6 50 14 -40 c19 -56 29 -63 41 -29 21 58 24
59 30 14 7 -44 7 -43 8 18 2 77 -14 80 -38 6 l-17 -49 -17 53 c-10 28 -22 52
-27 52 -5 0 -8 -28 -7 -62z"/>
<path d="M811 2478 c1 -45 3 -55 8 -33 5 23 13 31 36 36 l30 7 -33 1 c-47 1
-41 34 8 42 l35 6 -42 2 -43 1 1 -62z"/>
<path d="M991 2484 l-1 -61 31 1 c37 1 52 27 38 65 -7 18 -15 22 -34 19 -18
-4 -25 0 -28 16 -2 12 -5 -6 -6 -40z m57 -13 c5 -34 -16 -51 -33 -27 -10 14
-11 24 -4 38 13 24 33 18 37 -11z"/>
<path d="M1146 2519 c-17 -16 -17 -19 -3 -19 11 0 17 -12 20 -42 3 -34 4 -30
5 20 1 34 1 62 0 61 -2 0 -12 -9 -22 -20z"/>
<path d="M1220 2526 c0 -8 -3 -22 -6 -31 -5 -13 -1 -16 22 -13 24 2 30 -1 32
-20 4 -24 -29 -45 -36 -24 -4 14 -22 16 -22 3 0 -14 34 -23 54 -15 27 10 18
68 -11 72 -32 5 -29 30 5 35 25 4 25 4 -5 6 -23 1 -33 -4 -33 -13z"/>
<path d="M110 2515 c-9 -10 -9 -15 -1 -15 6 0 11 -17 11 -40 0 -22 5 -40 10
-40 6 0 10 25 10 55 0 56 -8 67 -30 40z"/>
<path d="M200 2515 c-8 -9 -9 -15 -2 -15 6 0 13 -19 15 -42 3 -37 4 -35 5 15
1 31 0 57 -2 57 -2 0 -9 -7 -16 -15z"/>
<path d="M912 2498 c-16 -16 -15 -53 3 -68 18 -15 47 -10 53 10 5 13 3 13 -12
1 -15 -12 -19 -12 -34 2 -15 16 -14 17 17 17 28 0 32 3 29 23 -3 25 -36 35
-56 15z m46 -16 c2 -7 -7 -12 -23 -12 -24 0 -26 2 -15 15 14 17 31 16 38 -3z"/>
<path d="M106 2335 c-21 -21 -21 -69 0 -90 24 -24 66 -15 84 18 13 24 13 30 0
55 -18 32 -60 41 -84 17z m55 -5 c26 -14 26 -66 0 -80 -25 -13 -27 -13 -45 6
-20 20 -20 48 0 68 18 19 20 19 45 6z"/>
<path d="M630 2331 c0 -14 -6 -17 -25 -13 -19 3 -27 -1 -34 -19 -14 -38 1 -64
38 -65 l31 -1 0 59 c0 32 -2 58 -5 58 -3 0 -5 -8 -5 -19z m-11 -40 c7 -13 6
-23 -3 -36 -16 -22 -36 -12 -36 19 0 39 22 49 39 17z"/>
<path d="M701 2294 l-1 -61 31 1 c37 1 52 27 38 65 -7 18 -15 22 -34 19 -18
-4 -25 0 -28 16 -2 12 -5 -6 -6 -40z m57 -13 c5 -34 -16 -51 -33 -27 -10 14
-11 24 -4 38 13 24 33 18 37 -11z"/>
<path d="M211 2256 c1 -34 4 -52 6 -40 3 16 10 20 28 16 19 -3 27 1 34 19 14
38 -1 64 -38 65 l-31 1 1 -61z m57 25 c5 -34 -16 -51 -33 -27 -10 14 -11 24
-4 38 13 24 33 18 37 -11z"/>
<path d="M312 2308 c-16 -16 -15 -53 3 -68 18 -15 47 -10 53 10 5 13 3 13 -12
1 -15 -12 -19 -12 -34 2 -15 16 -14 17 17 17 28 0 32 3 29 23 -3 25 -36 35
-56 15z m46 -16 c2 -7 -7 -12 -23 -12 -24 0 -26 2 -15 15 14 17 31 16 38 -3z"/>
<path d="M391 2271 c1 -42 2 -43 8 -15 16 65 41 74 41 14 0 -22 5 -40 11 -40
6 0 9 17 7 43 -3 40 -5 42 -35 43 -33 1 -33 1 -32 -45z"/>
<path d="M492 2308 c-20 -20 -15 -66 8 -73 20 -6 56 12 45 23 -2 3 -11 -1 -19
-7 -8 -7 -20 -10 -26 -6 -20 12 -10 25 20 25 18 0 30 5 30 13 0 16 -20 37 -35
37 -6 0 -16 -5 -23 -12z m29 -26 c-28 -4 -40 6 -21 18 9 6 20 4 29 -3 12 -10
11 -13 -8 -15z"/>
<path d="M797 2275 c12 -36 13 -49 3 -60 -9 -11 -9 -15 -1 -15 13 0 36 49 45
96 6 28 5 27 -10 -6 l-17 -35 -9 33 c-5 17 -13 32 -18 32 -5 0 -2 -20 7 -45z"/>
<path d="M921 2271 l2 -46 6 39 c8 55 31 60 31 7 0 -51 18 -54 22 -4 4 52 28
56 28 4 0 -23 5 -41 11 -41 6 0 9 17 7 43 l-3 42 -52 1 -53 1 1 -46z"/>
<path d="M1050 2294 c-19 -48 28 -87 60 -49 14 17 0 21 -17 4 -6 -6 -16 -8
-22 -5 -21 13 -11 26 19 26 31 0 39 17 18 38 -20 20 -48 14 -58 -14z m48 -2
c2 -7 -6 -12 -17 -12 -21 0 -27 11 -14 24 9 9 26 2 31 -12z"/>
<path d="M187 2154 c-4 -4 -7 -14 -7 -23 0 -12 3 -11 13 4 14 19 37 13 37 -9
0 -7 -13 -25 -30 -39 -41 -37 -38 -47 13 -45 36 1 38 2 10 5 -18 2 -33 7 -33
10 0 4 15 19 33 34 27 23 30 31 21 46 -12 19 -45 29 -57 17z"/>
<path d="M322 2148 c-7 -7 -12 -29 -12 -49 0 -73 62 -78 68 -5 5 54 -26 84
-56 54z m48 -48 c0 -9 -7 -25 -15 -36 -13 -16 -16 -17 -25 -4 -25 38 1 109 27
73 7 -9 13 -24 13 -33z"/>
<path d="M413 2153 c-7 -2 -13 -12 -13 -20 0 -14 2 -14 19 1 16 14 20 15 30 2
10 -12 7 -20 -18 -42 -42 -38 -40 -54 7 -53 30 2 32 3 10 6 -35 5 -35 18 -3
39 49 32 21 89 -32 67z"/>
<path d="M533 2100 c-12 -33 -18 -60 -13 -60 5 0 12 9 15 20 9 28 51 27 58 -2
4 -12 9 -19 12 -16 10 9 -27 118 -39 118 -6 0 -21 -27 -33 -60z m46 -2 c1 -5
-6 -8 -14 -8 -16 0 -19 9 -8 36 6 16 7 16 14 -2 4 -10 8 -22 8 -26z"/>
<path d="M632 2098 l1 -63 6 50 6 50 14 -40 c19 -56 29 -63 41 -29 21 58 24
59 30 14 7 -44 7 -43 8 18 2 77 -14 80 -38 6 l-17 -49 -17 53 c-10 28 -22 52
-27 52 -5 0 -8 -28 -7 -62z"/>
<path d="M811 2098 c1 -45 3 -55 8 -33 5 23 13 31 36 36 l30 7 -33 1 c-47 1
-41 34 8 42 l35 6 -42 2 -43 1 1 -62z"/>
<path d="M991 2104 l-1 -61 31 1 c37 1 52 27 38 65 -7 18 -15 22 -34 19 -18
-4 -25 0 -28 16 -2 12 -5 -6 -6 -40z m57 -13 c5 -34 -16 -51 -33 -27 -10 14
-11 24 -4 38 13 24 33 18 37 -11z"/>
<path d="M1146 2139 c-17 -16 -17 -19 -3 -19 11 0 17 -12 20 -42 3 -34 4 -30
5 20 1 34 1 62 0 61 -2 0 -12 -9 -22 -20z"/>
<path d="M1220 2141 c-15 -28 -12 -77 5 -91 25 -20 50 -8 50 25 0 23 -5 31
-22 33 -13 2 -23 10 -23 17 0 20 21 30 31 14 4 -7 11 -10 14 -7 11 11 -5 28
-25 28 -11 0 -24 -9 -30 -19z m45 -66 c0 -28 -29 -25 -33 3 -3 19 0 23 15 20
10 -2 18 -12 18 -23z"/>
<path d="M110 2135 c-9 -10 -9 -15 -1 -15 6 0 11 -17 11 -40 0 -22 5 -40 10
-40 6 0 10 25 10 55 0 56 -8 67 -30 40z"/>
<path d="M912 2118 c-16 -16 -15 -53 3 -68 18 -15 47 -10 53 10 5 13 3 13 -12
1 -15 -12 -19 -12 -34 2 -15 16 -14 17 17 17 28 0 32 3 29 23 -3 25 -36 35
-56 15z m46 -16 c2 -7 -7 -12 -23 -12 -24 0 -26 2 -15 15 14 17 31 16 38 -3z"/>
<path d="M101 1956 c-19 -22 -7 -43 28 -51 17 -4 31 -13 31 -21 0 -23 -29 -28
-50 -9 -21 19 -28 7 -8 -13 25 -25 78 -8 78 26 0 7 -16 20 -35 28 -38 15 -45
31 -19 41 11 4 22 -1 31 -13 14 -19 15 -19 11 1 -4 25 -50 32 -67 11z"/>
<path d="M202 1910 c1 -54 2 -58 7 -25 4 26 11 40 21 40 10 0 17 -14 21 -40
l7 -40 -2 45 c-1 38 -4 45 -21 45 -11 0 -23 9 -27 20 -3 11 -6 -9 -6 -45z"/>
<path d="M297 1934 c-14 -14 -7 -26 8 -14 12 10 19 10 27 2 8 -8 7 -13 -5 -17
-9 -3 -24 -7 -33 -10 -8 -3 -14 -13 -12 -22 2 -13 14 -18 39 -19 l35 -2 -5 42
c-5 31 -11 42 -26 44 -12 2 -24 0 -28 -4z m41 -56 c-7 -19 -38 -22 -38 -4 0
10 9 16 21 16 12 0 19 -5 17 -12z"/>
<path d="M370 1894 c0 -24 5 -44 10 -44 6 0 10 15 10 33 0 18 4 37 10 43 6 6
3 10 -10 11 -17 2 -20 -4 -20 -43z"/>
<path d="M433 1895 c0 -27 2 -38 4 -22 2 15 2 37 0 50 -2 12 -4 0 -4 -28z"/>
<path d="M460 1896 c0 -55 17 -62 22 -8 4 52 31 50 39 -3 l7 -40 -2 45 c-1 43
-2 45 -33 48 -33 3 -33 3 -33 -42z"/>
<path d="M554 1926 c-3 -8 -4 -27 -2 -43 2 -22 8 -28 26 -27 13 0 22 -5 22
-14 0 -10 -7 -12 -26 -8 -17 5 -23 3 -19 -4 10 -17 44 -11 55 9 5 11 10 38 10
60 0 39 -2 41 -30 41 -17 0 -33 -6 -36 -14z m41 -32 c0 -19 -5 -29 -15 -29
-16 0 -25 28 -16 51 10 25 31 10 31 -22z"/>
<path d="M103 1720 c-12 -33 -18 -60 -13 -60 5 0 12 9 15 20 9 28 51 27 58 -2
4 -12 9 -19 12 -16 10 9 -27 118 -39 118 -6 0 -21 -27 -33 -60z m46 -2 c1 -5
-6 -8 -14 -8 -16 0 -19 9 -8 36 6 16 7 16 14 -2 4 -10 8 -22 8 -26z"/>
<path d="M872 1720 c0 -49 2 -58 7 -34 16 65 41 74 41 14 0 -22 5 -40 11 -40
6 0 9 17 7 43 -3 37 -6 42 -28 42 -16 0 -27 7 -32 20 -3 11 -6 -9 -6 -45z"/>
<path d="M1053 1720 c-1 -55 0 -59 7 -27 4 20 10 40 13 43 13 13 27 -9 27 -42
0 -19 5 -34 10 -34 12 0 13 60 1 79 -5 8 -18 12 -29 9 -16 -4 -22 0 -25 16 -2
11 -4 -8 -4 -44z"/>
<path d="M1273 1720 c0 -36 2 -50 4 -32 2 17 2 47 0 65 -2 17 -4 3 -4 -33z"/>
<path d="M1432 1720 c0 -36 2 -56 5 -45 8 33 19 37 33 10 7 -14 17 -25 22 -25
5 0 1 13 -8 29 -15 25 -15 32 -5 45 8 9 9 16 3 16 -5 0 -16 -7 -23 -17 -13
-15 -15 -13 -20 18 -5 25 -6 16 -7 -31z"/>
<path d="M828 1758 c-8 -24 8 -92 22 -96 12 -4 13 -2 3 9 -15 15 -17 66 -4 71
5 2 3 8 -4 15 -10 9 -15 9 -17 1z"/>
<path d="M1008 1760 c-2 -6 -2 -31 0 -55 3 -34 8 -45 21 -44 10 0 11 2 4 6
-15 5 -18 70 -4 75 5 2 3 8 -4 15 -8 8 -15 8 -17 3z"/>
<path d="M201 1701 l2 -46 6 40 c4 26 11 40 21 40 10 0 17 -14 21 -40 l7 -40
-2 45 c-1 42 -3 45 -28 46 -27 1 -28 -1 -27 -45z"/>
<path d="M280 1746 c0 -2 7 -22 14 -45 13 -36 13 -42 0 -56 -13 -13 -13 -15
-1 -15 8 0 23 24 36 56 23 61 21 89 -2 33 l-13 -34 -12 33 c-9 26 -22 43 -22
28z"/>
<path d="M372 1738 c-7 -7 -12 -21 -12 -33 0 -46 53 -62 71 -21 21 45 -26 87
-59 54z m46 -27 c5 -34 -16 -51 -33 -27 -10 14 -11 24 -4 38 13 24 33 18 37
-11z"/>
<path d="M450 1706 c0 -55 17 -62 22 -8 4 52 31 50 39 -3 l7 -40 -2 45 c-1 43
-2 45 -33 48 -33 3 -33 3 -33 -42z"/>
<path d="M552 1738 c-16 -16 -15 -53 3 -68 18 -15 47 -10 53 10 5 13 3 13 -12
1 -15 -12 -19 -12 -34 2 -15 16 -14 17 17 17 28 0 32 3 29 23 -3 25 -36 35
-56 15z m46 -16 c2 -7 -7 -12 -23 -12 -24 0 -26 2 -15 15 14 17 31 16 38 -3z"/>
<path d="M670 1743 c0 -21 22 -83 29 -83 5 0 12 15 16 33 l8 32 6 -30 c3 -16
11 -29 16 -28 12 2 37 83 25 83 -5 0 -12 -15 -16 -32 l-7 -33 -9 33 c-5 17
-12 32 -17 32 -5 0 -12 -15 -16 -32 l-7 -33 -9 33 c-9 29 -19 43 -19 25z"/>
<path d="M793 1705 c0 -27 2 -38 4 -22 2 15 2 37 0 50 -2 12 -4 0 -4 -28z"/>
<path d="M1140 1724 c-19 -48 28 -87 60 -49 14 17 0 21 -17 4 -6 -6 -16 -8
-22 -5 -21 13 -11 26 19 26 31 0 39 17 18 38 -20 20 -48 14 -58 -14z m48 -2
c2 -7 -6 -12 -17 -12 -21 0 -27 11 -14 24 9 9 26 2 31 -12z"/>
<path d="M1313 1705 c0 -27 2 -38 4 -22 2 15 2 37 0 50 -2 12 -4 0 -4 -28z"/>
<path d="M1340 1706 c0 -55 17 -62 22 -8 4 52 31 50 39 -3 l7 -40 -2 45 c-1
43 -2 45 -33 48 -33 3 -33 3 -33 -42z"/>
<path d="M106 1574 c-9 -8 -16 -28 -16 -44 0 -52 50 -78 85 -44 22 22 10 32
-13 11 -10 -10 -21 -17 -25 -17 -13 0 -37 32 -37 50 0 19 25 50 40 50 5 0 16
-7 24 -16 14 -13 16 -13 16 -1 0 28 -50 36 -74 11z"/>
<path d="M446 1574 c-9 -8 -16 -31 -16 -50 0 -27 5 -37 26 -46 30 -14 57 -2
63 28 3 16 1 16 -15 -4 -22 -26 -49 -22 -59 9 -15 46 24 82 56 53 21 -19 27
-6 7 14 -17 17 -44 15 -62 -4z"/>
<path d="M1078 1570 c-2 -6 -2 -31 0 -55 3 -34 8 -45 21 -44 10 0 11 2 4 6
-15 5 -18 70 -4 75 5 2 3 8 -4 15 -8 8 -15 8 -17 3z"/>
<path d="M217 1554 c-14 -14 -7 -26 8 -14 12 10 19 10 27 2 8 -8 7 -13 -5 -17
-9 -3 -24 -7 -33 -10 -8 -3 -14 -13 -12 -22 2 -13 14 -18 39 -19 l35 -2 -5 42
c-5 31 -11 42 -26 44 -12 2 -24 0 -28 -4z m41 -56 c-7 -19 -38 -22 -38 -4 0
10 9 16 21 16 12 0 19 -5 17 -12z"/>
<path d="M290 1516 c0 -55 17 -62 22 -8 4 52 31 50 39 -3 l7 -40 -2 45 c-1 43
-2 45 -33 48 -33 3 -33 3 -33 -42z"/>
<path d="M552 1548 c-30 -30 -2 -86 38 -73 15 5 20 15 20 40 0 41 -32 59 -58
33z m43 -34 c0 -32 -21 -39 -38 -12 -8 12 -7 21 3 32 19 24 35 14 35 -20z"/>
<path d="M631 1511 c2 -34 3 -38 6 -16 10 64 42 69 44 7 1 -20 3 -28 6 -17 2
11 6 30 9 43 7 35 28 21 35 -24 l7 -39 -2 45 -1 45 -52 1 -53 1 1 -46z"/>
<path d="M771 1511 l2 -46 6 39 c8 55 31 60 31 7 0 -51 18 -54 22 -4 4 52 28
56 28 4 0 -23 5 -41 11 -41 6 0 9 17 7 43 l-3 42 -52 1 -53 1 1 -46z"/>
<path d="M900 1534 c-19 -48 28 -87 60 -49 14 17 0 21 -17 4 -6 -6 -16 -8 -22
-5 -21 13 -11 26 19 26 31 0 39 17 18 38 -20 20 -48 14 -58 -14z m48 -2 c2 -7
-6 -12 -17 -12 -21 0 -27 11 -14 24 9 9 26 2 31 -12z"/>
<path d="M991 1511 l2 -46 6 40 c4 26 11 40 21 40 10 0 17 -14 21 -40 l7 -40
-2 45 c-1 42 -3 45 -28 46 -27 1 -28 -1 -27 -45z"/>
<path d="M106 1194 c-9 -8 -16 -28 -16 -44 0 -52 50 -78 85 -44 22 22 10 32
-13 11 -10 -10 -21 -17 -25 -17 -13 0 -37 32 -37 50 0 19 25 50 40 50 5 0 16
-7 24 -16 14 -13 16 -13 16 -1 0 28 -50 36 -74 11z"/>
<path d="M212 1150 c1 -54 2 -58 7 -25 4 26 11 40 21 40 10 0 17 -14 21 -40
l7 -40 -2 45 c-1 38 -4 45 -21 45 -11 0 -23 9 -27 20 -3 11 -6 -9 -6 -45z"/>
<path d="M290 1150 c0 -66 17 -83 22 -22 4 52 31 50 39 -3 l7 -40 -2 45 c-1
40 -4 45 -23 44 -16 0 -23 5 -23 18 0 10 -4 18 -10 18 -6 0 -10 -27 -10 -60z"/>
<path d="M643 1150 c-12 -33 -18 -60 -13 -60 5 0 12 9 15 20 9 28 51 27 58 -2
4 -12 9 -19 12 -16 10 9 -27 118 -39 118 -6 0 -21 -27 -33 -60z m46 -2 c1 -5
-6 -8 -14 -8 -16 0 -19 9 -8 36 6 16 7 16 14 -2 4 -10 8 -22 8 -26z"/>
<path d="M397 1174 c-4 -4 -7 -12 -7 -18 0 -6 5 -5 12 2 16 16 28 15 28 -2 0
-8 -10 -16 -22 -18 -15 -2 -23 -10 -23 -23 0 -16 7 -20 35 -21 l36 -1 -6 41
c-4 31 -10 42 -25 44 -12 2 -24 0 -28 -4z m33 -53 c0 -14 -18 -23 -30 -16 -6
4 -8 11 -5 16 8 12 35 12 35 0z"/>
<path d="M477 1135 c8 -25 18 -45 22 -45 4 0 14 20 23 45 10 25 13 45 8 45 -4
0 -14 -15 -20 -32 l-13 -33 -10 33 c-5 17 -13 32 -18 32 -4 0 -1 -20 8 -45z"/>
<path d="M553 1135 c0 -27 2 -38 4 -22 2 15 2 37 0 50 -2 12 -4 0 -4 -28z"/>
<path d="M106 1005 c-21 -21 -21 -69 0 -90 24 -24 66 -15 84 18 13 24 13 30 0
55 -18 32 -60 41 -84 17z m55 -5 c26 -14 26 -66 0 -80 -25 -13 -27 -13 -45 6
-20 20 -20 48 0 68 18 19 20 19 45 6z"/>
<path d="M215 948 c13 -47 28 -56 33 -20 5 31 22 28 22 -4 0 -16 5 -24 12 -22
13 5 31 63 25 81 -3 7 -9 -4 -14 -23 l-10 -35 -7 33 c-4 17 -11 32 -15 32 -5
0 -12 -15 -18 -32 l-10 -33 -7 33 c-4 17 -11 32 -16 32 -4 0 -2 -19 5 -42z"/>
<path d="M331 940 l1 -45 8 38 c4 20 10 40 13 43 13 13 27 -9 27 -42 0 -19 5
-34 10 -34 12 0 13 60 2 78 -5 6 -20 11 -35 10 -25 -2 -27 -5 -26 -48z"/>
<path d="M420 964 c-19 -48 28 -87 60 -49 14 17 0 21 -17 4 -6 -6 -16 -8 -22
-5 -21 13 -11 26 19 26 31 0 39 17 18 38 -20 20 -48 14 -58 -14z m48 -2 c2 -7
-6 -12 -17 -12 -21 0 -27 11 -14 24 9 9 26 2 31 -12z"/>
<path d="M511 940 c2 -34 3 -37 6 -15 3 17 12 38 20 47 14 15 13 17 -6 15 -18
-1 -21 -7 -20 -47z"/>
<path d="M90 770 l0 -61 37 3 c80 6 80 110 0 116 l-37 3 0 -61z m68 38 c7 -7
12 -24 12 -38 0 -30 -17 -50 -42 -50 -15 0 -18 9 -18 50 0 41 3 50 18 50 10 0
23 -5 30 -12z"/>
<path d="M628 809 c-7 -20 6 -92 17 -96 8 -2 11 41 6 100 -1 11 -19 8 -23 -4z"/>
<path d="M208 774 c-9 -18 -9 -30 -1 -42 13 -21 55 -22 61 -2 4 13 3 13 -11 2
-9 -8 -21 -11 -27 -7 -20 12 -10 25 20 25 33 0 35 3 20 31 -15 27 -48 24 -62
-7z m50 -2 c2 -7 -6 -12 -17 -12 -21 0 -27 11 -14 24 9 9 26 2 31 -12z"/>
<path d="M297 794 c-15 -15 -6 -35 20 -45 19 -7 23 -13 15 -21 -8 -8 -16 -7
-28 3 -15 12 -17 12 -12 -1 6 -20 35 -25 53 -10 18 15 11 28 -23 41 -19 7 -22
13 -14 21 8 8 16 7 28 -3 15 -12 17 -12 12 1 -5 16 -39 25 -51 14z"/>
<path d="M380 786 c-30 -37 14 -96 47 -63 10 9 12 17 6 17 -7 0 -15 -5 -18
-10 -8 -13 -35 6 -35 25 0 19 27 38 35 25 3 -5 11 -10 17 -10 7 0 6 6 -2 15
-16 19 -34 19 -50 1z"/>
<path d="M450 754 c0 -24 5 -44 10 -44 6 0 10 15 10 33 0 18 4 37 10 43 6 6 3
10 -10 11 -17 2 -20 -4 -20 -43z"/>
<path d="M513 755 c0 -27 2 -38 4 -22 2 15 2 37 0 50 -2 12 -4 0 -4 -28z"/>
<path d="M541 736 c1 -34 4 -52 6 -40 3 16 10 20 28 16 19 -3 27 1 34 19 14
38 -1 64 -38 65 l-31 1 1 -61z m57 25 c5 -34 -16 -51 -33 -27 -10 14 -11 24
-4 38 13 24 33 18 37 -11z"/>
<path d="M683 755 c0 -27 2 -38 4 -22 2 15 2 37 0 50 -2 12 -4 0 -4 -28z"/>
<path d="M723 793 c-7 -2 -13 -20 -13 -38 0 -25 5 -35 20 -40 26 -8 50 11 50
39 0 36 -25 53 -57 39z m41 -26 c8 -12 7 -21 -6 -33 -20 -20 -38 -11 -38 20 0
39 23 46 44 13z"/>
<path d="M801 751 c1 -42 2 -43 8 -15 16 65 41 74 41 14 0 -22 5 -40 11 -40 6
0 9 17 7 43 -3 40 -5 42 -35 43 -33 1 -33 1 -32 -45z"/>
<path d="M90 580 c0 -68 17 -82 22 -17 l3 42 24 -42 c14 -24 28 -43 33 -43 4
0 7 28 6 63 l-1 62 -6 -50 -6 -50 -28 48 c-15 26 -32 47 -37 47 -6 0 -10 -27
-10 -60z"/>
<path d="M390 621 c0 -14 -5 -18 -18 -14 -28 7 -47 -23 -36 -55 7 -21 16 -27
42 -29 l32 -1 0 59 c0 33 -4 59 -10 59 -5 0 -10 -9 -10 -19z m-5 -57 c0 -19
-5 -29 -15 -29 -16 0 -25 28 -16 51 10 25 31 10 31 -22z"/>
<path d="M852 614 c-7 -8 -8 -14 -2 -14 5 0 10 -18 10 -40 0 -22 3 -40 8 -40
7 0 8 98 0 105 -1 2 -9 -3 -16 -11z"/>
<path d="M212 598 c-7 -7 -12 -21 -12 -33 0 -46 53 -62 71 -21 21 45 -26 87
-59 54z m46 -27 c5 -34 -16 -51 -33 -27 -10 14 -11 24 -4 38 13 24 33 18 37
-11z"/>
<path d="M430 584 c-19 -48 28 -87 60 -49 14 17 0 21 -17 4 -6 -6 -16 -8 -22
-5 -21 13 -11 26 19 26 31 0 39 17 18 38 -20 20 -48 14 -58 -14z m48 -2 c2 -7
-6 -12 -17 -12 -21 0 -27 11 -14 24 9 9 26 2 31 -12z"/>
<path d="M520 595 c-12 -14 -11 -18 1 -26 8 -5 20 -9 27 -9 6 0 12 -7 12 -15
0 -18 -27 -20 -33 -2 -2 6 -8 9 -12 5 -11 -10 4 -28 24 -28 18 0 41 18 41 32
0 5 -11 13 -25 18 -14 5 -25 14 -25 20 0 14 13 13 29 -2 11 -11 13 -10 9 2 -7
21 -32 24 -48 5z"/>
<path d="M602 598 c-16 -16 -15 -53 3 -68 18 -15 47 -10 53 10 5 13 3 13 -11
1 -14 -11 -20 -11 -32 -1 -19 15 -19 21 -1 45 12 16 16 17 30 6 9 -7 16 -9 16
-3 0 9 -22 22 -39 22 -4 0 -12 -5 -19 -12z"/>
<path d="M682 560 c1 -40 2 -41 5 -10 2 19 11 40 20 47 13 10 13 12 -6 10 -18
-1 -21 -7 -19 -47z"/>
<path d="M733 565 c0 -27 2 -38 4 -22 2 15 2 37 0 50 -2 12 -4 0 -4 -28z"/>
<path d="M760 550 c0 -33 4 -60 10 -60 6 0 10 8 10 18 0 13 7 18 21 18 31 -1
46 26 31 58 -9 20 -19 26 -42 26 l-30 0 0 -60z m55 14 c0 -19 -5 -29 -15 -29
-16 0 -25 28 -16 51 10 25 31 10 31 -22z"/>
<path d="M903 565 c0 -27 2 -38 4 -22 2 15 2 37 0 50 -2 12 -4 0 -4 -28z"/>
<path d="M942 598 c-30 -30 -2 -86 38 -73 15 5 20 15 20 40 0 41 -32 59 -58
33z m43 -34 c0 -32 -21 -39 -38 -12 -8 12 -7 21 3 32 19 24 35 14 35 -20z"/>
<path d="M1020 566 c0 -55 17 -62 22 -8 4 52 31 50 39 -3 l7 -40 -2 45 c-1 43
-2 45 -33 48 -33 3 -33 3 -33 -42z"/>
<path d="M90 390 l0 -61 37 3 c80 6 80 110 0 116 l-37 3 0 -61z m68 38 c7 -7
12 -24 12 -38 0 -30 -17 -50 -42 -50 -15 0 -18 9 -18 50 0 41 3 50 18 50 10 0
23 -5 30 -12z"/>
<path d="M503 390 c0 -36 2 -50 4 -32 2 17 2 47 0 65 -2 17 -4 3 -4 -33z"/>
<path d="M770 431 c0 -14 -6 -17 -25 -13 -19 3 -27 -1 -34 -19 -14 -38 1 -64
38 -65 l31 -1 0 59 c0 32 -2 58 -5 58 -3 0 -5 -8 -5 -19z m-11 -40 c7 -13 6
-23 -3 -36 -16 -22 -36 -12 -36 19 0 39 22 49 39 17z"/>
<path d="M851 388 c1 -35 4 -51 6 -36 3 22 10 27 36 30 28 3 32 7 32 33 0 27
-3 30 -37 33 l-38 3 1 -63z m53 46 c23 -9 20 -31 -5 -39 -25 -8 -44 7 -36 29
7 17 16 19 41 10z"/>
<path d="M212 408 c-7 -7 -12 -21 -12 -33 0 -46 53 -62 71 -21 21 45 -26 87
-59 54z m46 -27 c5 -34 -16 -51 -33 -27 -10 14 -11 24 -4 38 13 24 33 18 37
-11z"/>
<path d="M295 378 c13 -47 28 -56 33 -20 5 31 22 28 22 -4 0 -16 5 -24 12 -22
13 5 31 63 25 81 -3 7 -9 -4 -14 -23 l-10 -35 -7 33 c-4 17 -11 32 -15 32 -5
0 -12 -15 -18 -32 l-10 -33 -7 33 c-4 17 -11 32 -16 32 -4 0 -2 -19 5 -42z"/>
<path d="M411 370 l1 -45 8 38 c4 20 10 40 13 43 13 13 27 -9 27 -42 0 -19 5
-34 10 -34 12 0 13 60 2 78 -5 6 -20 11 -35 10 -25 -2 -27 -5 -26 -48z"/>
<path d="M542 408 c-30 -30 -2 -86 38 -73 15 5 20 15 20 40 0 41 -32 59 -58
33z m43 -34 c0 -32 -21 -39 -38 -12 -8 12 -7 21 3 32 19 24 35 14 35 -20z"/>
<path d="M637 414 c-4 -4 -7 -12 -7 -18 0 -6 5 -5 12 2 16 16 28 15 28 -2 0
-8 -10 -16 -22 -18 -15 -2 -23 -10 -23 -23 0 -16 7 -20 35 -21 l36 -1 -6 41
c-4 31 -10 42 -25 44 -12 2 -24 0 -28 -4z m33 -53 c0 -14 -18 -23 -30 -16 -6
4 -8 11 -5 16 8 12 35 12 35 0z"/>
<path d="M962 408 c-20 -20 -15 -66 8 -73 20 -6 56 12 45 23 -2 3 -11 -1 -19
-7 -8 -7 -20 -10 -26 -6 -20 12 -10 25 20 25 31 0 39 17 18 38 -15 15 -31 15
-46 0z m29 -26 c-28 -4 -40 6 -21 18 9 6 20 4 29 -3 12 -10 11 -13 -8 -15z"/>
<path d="M1041 370 c1 -43 1 -44 9 -13 4 18 13 39 19 47 10 12 9 15 -8 13 -18
-1 -21 -8 -20 -47z"/>
<path d="M1090 375 c0 -54 17 -60 22 -8 4 52 28 56 28 4 0 -50 18 -55 22 -6 4
47 21 45 29 -2 l6 -38 2 46 1 47 -55 1 -55 0 0 -44z"/>
<path d="M1233 375 c0 -27 2 -38 4 -22 2 15 2 37 0 50 -2 12 -4 0 -4 -28z"/>
<path d="M1267 414 c-15 -15 -6 -35 20 -45 19 -7 23 -13 15 -21 -8 -8 -16 -7
-28 3 -15 12 -17 12 -12 -1 6 -20 35 -25 53 -10 18 15 11 28 -23 41 -19 7 -22
13 -14 21 8 8 16 7 28 -3 15 -12 17 -12 12 1 -5 16 -39 25 -51 14z"/>
<path d="M1347 414 c-15 -15 -6 -35 20 -45 19 -7 23 -13 15 -21 -8 -8 -16 -7
-28 3 -15 12 -17 12 -12 -1 6 -20 35 -25 53 -10 18 15 11 28 -23 41 -19 7 -22
13 -14 21 8 8 16 7 28 -3 15 -12 17 -12 12 1 -5 16 -39 25 -51 14z"/>
<path d="M1420 375 c0 -25 5 -45 10 -45 6 0 10 20 10 45 0 25 -4 45 -10 45 -5
0 -10 -20 -10 -45z"/>
<path d="M1459 399 c-8 -16 -8 -28 0 -45 18 -41 71 -25 71 21 0 44 -50 61 -71
24z m46 -25 c0 -19 -5 -29 -15 -29 -16 0 -25 28 -16 51 10 25 31 10 31 -22z"/>
<path d="M1551 371 l2 -46 6 40 c4 26 11 40 21 40 10 0 17 -14 21 -40 l7 -40
-2 45 c-1 42 -3 45 -28 46 -27 1 -28 -1 -27 -45z"/>
<path d="M90 255 c0 -24 35 -115 44 -112 11 4 48 108 41 115 -2 3 -9 -8 -15
-24 -26 -72 -26 -72 -40 -29 -12 38 -30 68 -30 50z"/>
<path d="M1060 240 c0 -13 -5 -18 -15 -14 -21 8 -45 -14 -45 -41 0 -28 19 -45
48 -42 20 1 22 7 22 59 0 32 -2 58 -5 58 -3 0 -5 -9 -5 -20z m-5 -56 c0 -32
-21 -39 -38 -12 -8 12 -7 21 3 32 19 24 35 14 35 -20z"/>
<path d="M1393 200 c0 -36 2 -50 4 -32 2 17 2 47 0 65 -2 17 -4 3 -4 -33z"/>
<path d="M1660 241 c0 -14 -6 -17 -25 -13 -19 3 -27 -1 -34 -19 -14 -38 1 -64
38 -65 l31 -1 0 59 c0 32 -2 58 -5 58 -3 0 -5 -8 -5 -19z m-11 -40 c7 -13 6
-23 -3 -36 -16 -22 -36 -12 -36 19 0 39 22 49 39 17z"/>
<path d="M203 185 c0 -27 2 -38 4 -22 2 15 2 37 0 50 -2 12 -4 0 -4 -28z"/>
<path d="M242 218 c-20 -20 -15 -66 8 -73 20 -6 56 12 45 23 -2 3 -11 -1 -19
-7 -8 -7 -20 -10 -26 -6 -20 12 -10 25 20 25 18 0 30 5 30 13 0 16 -20 37 -35
37 -6 0 -16 -5 -23 -12z m29 -26 c-28 -4 -40 6 -21 18 9 6 20 4 29 -3 12 -10
11 -13 -8 -15z"/>
<path d="M315 213 c3 -10 9 -30 12 -45 7 -37 20 -35 31 5 l9 32 7 -32 c4 -18
12 -33 16 -33 11 0 34 79 26 87 -6 6 -12 -7 -19 -42 -3 -15 -6 -13 -12 13 -4
17 -11 32 -16 32 -5 0 -13 -15 -18 -32 l-9 -33 -7 33 c-4 17 -12 32 -17 32 -6
0 -7 -8 -3 -17z"/>
<path d="M438 204 c-9 -18 -9 -30 -1 -42 13 -21 55 -22 61 -2 4 13 3 13 -11 2
-9 -8 -21 -11 -27 -7 -20 12 -10 25 20 25 33 0 35 3 20 31 -15 27 -48 24 -62
-7z m50 -2 c2 -7 -6 -12 -17 -12 -21 0 -27 11 -14 24 9 9 26 2 31 -12z"/>
<path d="M532 180 c1 -40 2 -41 5 -10 2 19 11 40 20 47 13 10 13 12 -6 10 -18
-1 -21 -7 -19 -47z"/>
<path d="M587 223 c-15 -14 -6 -34 20 -44 20 -7 23 -13 15 -21 -9 -9 -15 -9
-24 0 -18 18 -33 15 -18 -3 17 -20 54 -15 58 7 2 12 -6 21 -23 28 -15 6 -23
15 -20 21 4 6 13 8 21 5 8 -3 14 -1 14 4 0 11 -33 14 -43 3z"/>
<path d="M710 216 c-30 -37 14 -96 47 -63 10 9 12 17 6 17 -7 0 -15 -5 -18
-10 -8 -13 -35 6 -35 25 0 19 27 38 35 25 3 -5 11 -10 17 -10 7 0 6 6 -2 15
-16 19 -34 19 -50 1z"/>
<path d="M797 224 c-4 -4 -7 -12 -7 -18 0 -6 5 -5 12 2 16 16 28 15 28 -2 0
-8 -10 -16 -22 -18 -15 -2 -23 -10 -23 -23 0 -16 7 -20 35 -21 l36 -1 -6 41
c-4 31 -10 42 -25 44 -12 2 -24 0 -28 -4z m33 -53 c0 -14 -18 -23 -30 -16 -6
4 -8 11 -5 16 8 12 35 12 35 0z"/>
<path d="M871 181 c1 -42 2 -43 8 -15 16 65 41 74 41 14 0 -22 5 -40 11 -40 6
0 9 17 7 43 -3 40 -5 42 -35 43 -33 1 -33 1 -32 -45z"/>
<path d="M1102 218 c-30 -30 -2 -86 38 -73 15 5 20 15 20 40 0 41 -32 59 -58
33z m43 -34 c0 -32 -21 -39 -38 -12 -8 12 -7 21 3 32 19 24 35 14 35 -20z"/>
<path d="M1185 188 c13 -47 28 -56 33 -20 5 31 22 28 22 -4 0 -16 5 -24 12
-22 13 5 31 63 25 81 -3 7 -9 -4 -14 -23 l-10 -35 -7 33 c-4 17 -11 32 -15 32
-5 0 -12 -15 -18 -32 l-10 -33 -7 33 c-4 17 -11 32 -16 32 -4 0 -2 -19 5 -42z"/>
<path d="M1301 180 l1 -45 8 38 c4 20 10 40 13 43 13 13 27 -9 27 -42 0 -19 5
-34 10 -34 12 0 13 60 2 78 -5 6 -20 11 -35 10 -25 -2 -27 -5 -26 -48z"/>
<path d="M1432 218 c-30 -30 -2 -86 38 -73 15 5 20 15 20 40 0 41 -32 59 -58
33z m43 -34 c0 -32 -21 -39 -38 -12 -8 12 -7 21 3 32 19 24 35 14 35 -20z"/>
<path d="M1517 223 c-14 -13 -7 -25 8 -13 8 6 19 9 25 5 17 -11 11 -23 -12
-27 -15 -2 -23 -10 -23 -23 0 -16 7 -20 36 -21 34 -1 35 0 31 30 -3 17 -9 37
-14 44 -11 13 -40 16 -51 5z m43 -52 c0 -14 -18 -23 -30 -16 -6 4 -8 11 -5 16
8 12 35 12 35 0z"/>
</g>
</svg>
